<?xml version="1.0" encoding="UTF-8"?>
<svg width="288px" height="77px" viewBox="0 0 288 77" version="1.1" xmlns="http://www.w3.org/2000/svg" xmlns:xlink="http://www.w3.org/1999/xlink">
    <!-- Generator: Sketch 41 (35326) - http://www.bohemiancoding.com/sketch -->
    <title>Untitled</title>
    <desc>Created with Sketch.</desc>
    <defs></defs>
    <g id="Page-1" stroke="none" stroke-width="1" fill="none" fill-rule="evenodd">
        <rect id="Header" fill="#5B3717" x="0" y="0" width="288" height="77"></rect>
        <path d="M27.2975,27.14 C28.3125,28.155 29.5725,28.75 30.7975,28.75 C33.1775,28.75 34.4375,27.07 34.4375,25.11 C34.4375,22.1 31.9175,19.16 27.4375,18.915 C28.2075,17.515 29.4675,17.025 30.7275,17.025 C30.9375,17.025 31.7775,17.165 31.9525,17.165 C32.3725,17.165 32.7225,16.92 32.7225,16.465 C32.7225,15.59 31.4625,15.52 30.7275,15.52 C28.5575,15.52 26.5625,16.745 25.6525,18.95 C19.7725,19.545 15.7825,24.83 15.7825,30.955 C15.7825,36.94 19.3875,41.49 25.5825,41.49 C31.4625,41.49 33.8775,37.85 33.8775,37.29 C33.8775,36.835 33.5275,36.485 33.1425,36.485 C32.8975,36.485 32.6175,36.625 32.4775,36.835 C31.1125,38.83 28.6975,39.985 25.5825,39.985 C20.2625,39.985 17.3225,35.96 17.3225,30.955 C17.3225,26.02 20.3325,21.4 25.2325,20.49 C25.1975,20.77 25.1625,21.085 25.1625,21.4 C25.1625,23.675 25.8975,25.775 27.2975,27.14 Z M30.7975,27.245 C29.1525,27.245 26.7375,25.215 26.7375,21.4 C26.7375,21.015 26.7725,20.665 26.8425,20.35 C30.6575,20.455 32.8275,22.73 32.8275,25.11 C32.8275,25.74 32.6525,27.245 30.7975,27.245 Z M38.2175,41.14 C38.6725,41.14 39.0225,40.79 38.9525,40.37 C38.4625,36.485 41.4375,30.64 43.7125,30.64 C44.5875,30.64 45.0425,31.55 45.0425,34.21 C45.0425,36.45 44.5525,38.83 44.2725,39.915 C44.2725,39.985 44.2375,40.055 44.2375,40.125 C44.2375,40.51 44.5875,40.895 45.0425,40.895 C45.3925,40.895 45.6725,40.65 45.7775,40.3 C45.8825,39.985 46.6175,37.115 46.6175,34.21 C46.6175,32.705 46.5825,29.03 43.8175,29.03 C41.9275,29.03 39.7925,31.165 38.7425,34.665 C39.1625,31.305 39.7225,28.82 40.0375,27.56 C43.5375,26.685 47.1425,24.06 47.1425,21.225 C47.1425,19.79 46.2675,18.88 44.7625,18.88 C42.0675,18.88 39.8975,22.835 38.8125,26.3 C38.4275,26.37 37.9375,26.405 37.4825,26.405 L36.8175,26.405 C36.4325,26.335 36.0825,26.685 36.0825,27.105 C36.0825,27.91 36.8175,27.875 37.4475,27.875 C37.7625,27.875 38.1475,27.875 38.3925,27.84 C38.0425,29.31 37.2375,33.79 37.2375,37.64 C37.2375,38.795 37.3075,39.46 37.4825,40.51 C37.5525,40.86 37.8325,41.14 38.2175,41.14 Z M44.7275,20.315 C45.3575,20.315 45.6025,20.7 45.6025,21.225 C45.6025,22.94 43.2575,24.97 40.5275,25.915 C41.6125,22.625 43.4675,20.315 44.7275,20.315 Z M55.6475,28.89 C51.7975,28.89 49.2775,33.965 49.2775,37.605 C49.2775,40.23 50.7125,41.28 52.1125,41.28 C54.6325,41.28 55.7525,38.935 55.7525,38.34 C55.7525,37.92 55.4725,37.57 55.0175,37.57 C54.7375,37.57 54.4575,37.745 54.3525,38.025 C54.0025,38.97 53.3025,39.81 52.3575,39.81 C51.4475,39.81 50.8525,38.9 50.8525,37.605 C50.8525,34.42 52.8475,30.36 55.5075,30.36 C56.4175,30.36 57.3275,30.99 57.3275,32.67 C57.3275,33.895 57.0825,35.26 56.8725,36.555 C56.6975,37.815 56.4875,38.795 56.4875,39.53 C56.4875,40.23 56.6975,41.21 57.4675,41.21 C57.8875,41.21 58.2725,40.86 58.2725,40.475 C58.2725,40.3 58.2025,40.195 58.1325,40.055 C58.0975,39.95 58.0625,39.81 58.0625,39.6 C58.0625,38.9 58.2725,37.71 58.4125,36.8 C58.6575,35.47 58.8675,33.93 58.8675,32.6 C58.8675,30.185 57.6425,28.89 55.6475,28.89 Z M63.2775,39.46 C64.0825,34.98 64.7825,30.71 68.4225,30.5 C68.8425,30.465 69.1575,30.22 69.1575,29.8 C69.1575,29.345 68.7725,29.03 68.3175,29.03 C66.5675,29.03 64.6775,30.08 63.9075,32.39 C63.9775,30.64 62.9975,29.45 62.3325,29.45 C61.9475,29.45 61.5975,29.8 61.5975,30.22 C61.5975,30.43 61.6325,30.64 61.8075,30.78 C62.2625,31.235 62.5775,31.83 62.5775,33.37 C62.5775,34.525 61.5975,40.265 61.5975,40.51 C61.5975,40.93 61.8775,41.28 62.2975,41.28 C62.6825,41.28 62.9975,41.035 63.0675,40.615 L63.2775,39.46 Z M73.5325,19.335 C73.2525,19.44 73.0425,19.72 73.0425,20.07 C73.0425,20.14 73.0775,20.245 73.1125,20.35 C73.2175,20.525 73.2525,20.98 73.2525,21.68 C73.2525,23.115 72.7625,24.9 71.9925,28.085 C71.3275,30.78 70.2775,35.82 70.2775,38.62 C70.2775,39.6 70.3475,41.14 71.3275,41.14 C71.7475,41.14 72.0975,40.825 72.0975,40.37 C72.0975,40.23 72.0625,40.125 71.9925,40.02 C71.9575,39.915 71.8525,39.6 71.8525,38.62 C71.8525,35.82 72.9375,30.78 73.7075,27.63 C74.1975,25.6 74.7925,23.325 74.7925,21.68 C74.7925,20.56 74.7925,19.265 73.8475,19.265 C73.7425,19.265 73.6025,19.3 73.5325,19.335 Z M78.9925,25.075 L77.9425,23.92 L78.1175,25.53 L76.4025,26.51 L78.1525,26.65 L78.1175,28.68 L79.0975,26.755 L81.6875,27.175 L79.5525,25.81 L80.9525,24.83 L78.9925,25.075 Z M78.7475,29.38 C78.3275,29.275 77.8725,29.52 77.8025,29.94 C76.7525,34.105 76.2275,40.195 76.2275,40.65 C76.2275,41.105 76.5775,41.455 77.0325,41.455 C77.4525,41.455 77.7675,41.14 77.8025,40.72 C78.0125,37.395 78.6775,32.845 79.3075,30.325 C79.3425,30.255 79.3425,30.185 79.3425,30.15 C79.3425,29.8 79.0975,29.485 78.7475,29.38 Z M85.4675,34.42 C85.0125,34.455 84.6975,34.805 84.6975,35.19 C84.6975,35.645 85.0475,35.925 85.4675,35.925 C87.5325,35.925 90.4375,34.56 90.4375,31.795 C90.4375,30.395 89.5975,29.1 87.4975,29.1 C84.7325,29.1 81.6525,32.18 81.6525,36.59 C81.6525,39.565 83.3675,41.35 86.0275,41.35 C88.1625,41.35 89.8425,39.95 89.8425,39.285 C89.8425,38.83 89.5625,38.48 89.1425,38.48 C88.8975,38.48 88.7225,38.585 88.5825,38.76 C87.9875,39.495 87.0425,39.915 86.1325,39.915 C83.6125,39.915 83.2275,37.78 83.2275,36.59 C83.2275,32.845 85.7125,30.605 87.4625,30.605 C88.3725,30.605 88.8625,31.095 88.8625,31.795 C88.8625,33.37 87.1125,34.385 85.4675,34.42 Z M94.0075,36.065 C92.6775,36.065 91.5925,37.115 91.5925,38.585 C91.5925,40.335 93.4125,41.49 95.4075,41.49 C98.0675,41.49 99.6075,39.88 99.6075,37.71 C99.6075,35.925 98.4525,34.91 96.7375,33.895 C95.3375,33.055 95.0225,32.635 95.0225,31.97 C95.0225,31.06 95.6525,30.36 96.7725,30.36 C97.6825,30.36 98.1725,31.13 98.2775,31.48 C98.3475,31.76 98.6975,31.935 98.9075,31.935 C99.3625,31.935 99.7125,31.585 99.7125,31.13 C99.7125,30.535 98.9075,29.03 96.8075,29.03 C94.6375,29.03 93.4825,30.535 93.4825,31.97 C93.4825,33.72 94.9175,34.665 96.0375,35.26 C97.6125,36.1 98.0325,37.08 98.0325,37.92 C98.0325,39.495 96.7025,40.23 95.4425,40.23 C94.1825,40.23 93.1675,39.39 93.1675,38.55 C93.1675,38.06 93.3425,37.535 94.0075,37.535 C94.2525,37.535 94.3575,37.605 94.5675,37.64 C94.7775,37.675 95.2675,37.57 95.2675,36.975 C95.2675,36.275 94.6375,36.065 94.0075,36.065 Z M116.4075,30.325 C116.1275,29.625 115.4275,29.03 113.9925,29.03 C110.5275,29.03 108.1125,32.985 108.1125,36.8 C108.1125,39.95 109.7575,41.35 111.9275,41.35 C114.5875,41.35 116.2325,39.215 116.2325,38.55 C116.2325,38.095 115.9875,37.745 115.5675,37.745 C115.2525,37.745 115.0425,37.955 114.9025,38.2 C114.2025,39.46 112.9775,39.95 112.0325,39.95 C111.2625,39.95 109.6875,39.6 109.6875,36.8 C109.6875,34.21 111.1575,30.535 113.8875,30.535 C114.5175,30.535 114.8675,30.85 115.1125,31.2 C115.2875,31.445 115.5325,31.585 115.7775,31.585 C116.2325,31.585 116.5125,31.235 116.5125,30.815 C116.5125,30.675 116.4775,30.465 116.4075,30.325 Z M120.0475,41.14 C120.5025,41.14 120.8525,40.79 120.7825,40.37 C120.2925,36.485 123.2675,30.64 125.5425,30.64 C126.4175,30.64 126.8725,31.55 126.8725,34.21 C126.8725,36.45 126.3825,38.83 126.1025,39.915 C126.1025,39.985 126.0675,40.055 126.0675,40.125 C126.0675,40.51 126.4175,40.895 126.8725,40.895 C127.2225,40.895 127.5025,40.65 127.6075,40.3 C127.7125,39.985 128.4475,37.115 128.4475,34.21 C128.4475,32.705 128.4125,29.03 125.6475,29.03 C123.7575,29.03 121.6225,31.165 120.5725,34.665 C120.9925,31.305 121.5525,28.82 121.8675,27.56 C125.3675,26.685 128.9725,24.06 128.9725,21.225 C128.9725,19.79 128.0975,18.88 126.5925,18.88 C123.8975,18.88 121.7275,22.835 120.6425,26.3 C120.2575,26.37 119.7675,26.405 119.3125,26.405 L118.6475,26.405 C118.2625,26.335 117.9125,26.685 117.9125,27.105 C117.9125,27.91 118.6475,27.875 119.2775,27.875 C119.5925,27.875 119.9775,27.875 120.2225,27.84 C119.8725,29.31 119.0675,33.79 119.0675,37.64 C119.0675,38.795 119.1375,39.46 119.3125,40.51 C119.3825,40.86 119.6625,41.14 120.0475,41.14 Z M126.5575,20.315 C127.1875,20.315 127.4325,20.7 127.4325,21.225 C127.4325,22.94 125.0875,24.97 122.3575,25.915 C123.4425,22.625 125.2975,20.315 126.5575,20.315 Z M137.3725,28.82 C135.1325,28.82 133.9425,30.57 133.9425,32.25 C133.9425,33.86 134.9925,35.19 137.0225,35.19 C137.8975,35.19 137.9675,34.63 137.9675,34.42 C137.9675,34 137.6175,33.65 137.1625,33.65 C136.5675,33.65 135.5175,33.65 135.5175,32.25 C135.5175,31.41 135.9725,30.29 137.3025,30.29 C138.9825,30.29 139.5425,32.18 139.5425,33.58 C139.5425,36.555 137.9325,39.88 135.4125,39.88 C133.6275,39.88 132.8925,37.745 132.8925,35.925 C132.8925,35.19 132.9975,34.21 133.2075,33.685 C133.2425,33.58 133.2775,33.475 133.2775,33.335 C133.2775,32.95 132.9625,32.565 132.5425,32.565 C132.2275,32.565 131.9125,32.81 131.8075,33.125 C131.4575,34.07 131.3175,34.98 131.3175,35.96 C131.3175,39.215 132.9275,41.35 135.3425,41.35 C138.9125,41.35 141.1175,37.325 141.1175,33.58 C141.1175,30.78 139.6825,28.82 137.3725,28.82 Z M151.4775,30.325 C151.1975,29.625 150.4975,29.03 149.0625,29.03 C145.5975,29.03 143.1825,32.985 143.1825,36.8 C143.1825,39.95 144.8275,41.35 146.9975,41.35 C149.6575,41.35 151.3025,39.215 151.3025,38.55 C151.3025,38.095 151.0575,37.745 150.6375,37.745 C150.3225,37.745 150.1125,37.955 149.9725,38.2 C149.2725,39.46 148.0475,39.95 147.1025,39.95 C146.3325,39.95 144.7575,39.6 144.7575,36.8 C144.7575,34.21 146.2275,30.535 148.9575,30.535 C149.5875,30.535 149.9375,30.85 150.1825,31.2 C150.3575,31.445 150.6025,31.585 150.8475,31.585 C151.3025,31.585 151.5825,31.235 151.5825,30.815 C151.5825,30.675 151.5475,30.465 151.4775,30.325 Z M159.8075,28.82 C157.5675,28.82 156.3775,30.57 156.3775,32.25 C156.3775,33.86 157.4275,35.19 159.4575,35.19 C160.3325,35.19 160.4025,34.63 160.4025,34.42 C160.4025,34 160.0525,33.65 159.5975,33.65 C159.0025,33.65 157.9525,33.65 157.9525,32.25 C157.9525,31.41 158.4075,30.29 159.7375,30.29 C161.4175,30.29 161.9775,32.18 161.9775,33.58 C161.9775,36.555 160.3675,39.88 157.8475,39.88 C156.0625,39.88 155.3275,37.745 155.3275,35.925 C155.3275,35.19 155.4325,34.21 155.6425,33.685 C155.6775,33.58 155.7125,33.475 155.7125,33.335 C155.7125,32.95 155.3975,32.565 154.9775,32.565 C154.6625,32.565 154.3475,32.81 154.2425,33.125 C153.8925,34.07 153.7525,34.98 153.7525,35.96 C153.7525,39.215 155.3625,41.35 157.7775,41.35 C161.3475,41.35 163.5525,37.325 163.5525,33.58 C163.5525,30.78 162.1175,28.82 159.8075,28.82 Z M169.1525,19.335 C168.8725,19.44 168.6625,19.72 168.6625,20.07 C168.6625,20.14 168.6975,20.245 168.7325,20.35 C168.8375,20.525 168.8725,20.98 168.8725,21.68 C168.8725,23.115 168.3825,24.9 167.6125,28.085 C166.9475,30.78 165.8975,35.82 165.8975,38.62 C165.8975,39.6 165.9675,41.14 166.9475,41.14 C167.3675,41.14 167.7175,40.825 167.7175,40.37 C167.7175,40.23 167.6825,40.125 167.6125,40.02 C167.5775,39.915 167.4725,39.6 167.4725,38.62 C167.4725,35.82 168.5575,30.78 169.3275,27.63 C169.8175,25.6 170.4125,23.325 170.4125,21.68 C170.4125,20.56 170.4125,19.265 169.4675,19.265 C169.3625,19.265 169.2225,19.3 169.1525,19.335 Z M177.3075,28.89 C173.4575,28.89 170.9375,33.965 170.9375,37.605 C170.9375,40.23 172.3725,41.28 173.7725,41.28 C176.2925,41.28 177.4125,38.935 177.4125,38.34 C177.4125,37.92 177.1325,37.57 176.6775,37.57 C176.3975,37.57 176.1175,37.745 176.0125,38.025 C175.6625,38.97 174.9625,39.81 174.0175,39.81 C173.1075,39.81 172.5125,38.9 172.5125,37.605 C172.5125,34.42 174.5075,30.36 177.1675,30.36 C178.0775,30.36 178.9875,30.99 178.9875,32.67 C178.9875,33.895 178.7425,35.26 178.5325,36.555 C178.3575,37.815 178.1475,38.795 178.1475,39.53 C178.1475,40.23 178.3575,41.21 179.1275,41.21 C179.5475,41.21 179.9325,40.86 179.9325,40.475 C179.9325,40.3 179.8625,40.195 179.7925,40.055 C179.7575,39.95 179.7225,39.81 179.7225,39.6 C179.7225,38.9 179.9325,37.71 180.0725,36.8 C180.3175,35.47 180.5275,33.93 180.5275,32.6 C180.5275,30.185 179.3025,28.89 177.3075,28.89 Z M187.7375,40.545 C187.7375,40.16 187.4225,39.81 187.0375,39.81 C186.6875,39.74 185.6725,39.565 185.6725,36.8 C185.6725,35.015 185.9875,32.81 186.6175,30.57 C187.2825,30.605 188.4725,30.675 189.1375,30.675 C189.5225,30.675 189.8025,30.395 189.8025,29.975 C189.8025,29.59 189.4175,29.31 189.0325,29.24 C188.0875,29.205 187.3875,29.17 186.8975,29.17 C187.0725,28.4 187.5275,26.545 187.8775,25.495 C187.9125,25.425 187.9475,25.25 187.9475,25.11 C187.9475,24.69 187.5975,24.41 187.1425,24.41 C186.8275,24.445 186.5475,24.655 186.4425,24.97 C186.0575,26.37 185.6375,27.98 185.3575,29.135 C184.0975,29.17 182.6275,29.205 182.6275,30.185 C182.6275,30.57 182.8725,30.78 183.1175,30.78 C183.6075,30.78 183.9925,30.605 185.0075,30.605 C184.3425,33.265 184.1325,35.225 184.1325,36.905 C184.1325,39.6 184.9725,41.035 186.7225,41.315 C186.7575,41.315 186.9325,41.35 186.9675,41.35 C187.3875,41.315 187.7375,40.965 187.7375,40.545 Z M194.2475,34.42 C193.7925,34.455 193.4775,34.805 193.4775,35.19 C193.4775,35.645 193.8275,35.925 194.2475,35.925 C196.3125,35.925 199.2175,34.56 199.2175,31.795 C199.2175,30.395 198.3775,29.1 196.2775,29.1 C193.5125,29.1 190.4325,32.18 190.4325,36.59 C190.4325,39.565 192.1475,41.35 194.8075,41.35 C196.9425,41.35 198.6225,39.95 198.6225,39.285 C198.6225,38.83 198.3425,38.48 197.9225,38.48 C197.6775,38.48 197.5025,38.585 197.3625,38.76 C196.7675,39.495 195.8225,39.915 194.9125,39.915 C192.3925,39.915 192.0075,37.78 192.0075,36.59 C192.0075,32.845 194.4925,30.605 196.2425,30.605 C197.1525,30.605 197.6425,31.095 197.6425,31.795 C197.6425,33.37 195.8925,34.385 194.2475,34.42 Z M207.3375,48.035 C206.6375,48.035 206.0775,46.985 206.0775,45.34 C206.0775,41.875 207.4425,35.785 211.1875,32.425 C210.9425,36.135 210.6625,40.265 209.8925,43.66 C209.2275,46.6 208.5975,48.035 207.3375,48.035 Z M219.9375,21.54 C219.9375,20 219.0275,18.81 217.0675,18.81 C215.1425,18.81 213.6025,20.175 212.7625,22.17 C211.8175,24.445 211.6075,25.95 211.2925,30.535 C206.3575,33.895 204.5025,41.175 204.5025,45.34 C204.5025,48.14 205.7625,49.54 207.2325,49.54 C209.5075,49.54 210.5225,47.545 211.3625,44.22 C212.1675,41 212.5175,36.625 212.8675,31.41 C213.9525,30.85 215.1425,30.78 215.7725,30.78 C215.9475,30.78 216.2975,30.815 216.6125,30.815 C216.9625,30.815 217.3125,30.57 217.3125,30.15 C217.3125,29.52 216.8575,29.31 215.8775,29.31 C214.6175,29.31 213.7775,29.485 212.9025,29.835 C213.1125,27.07 213.3225,24.55 214.1975,22.695 C214.9325,21.12 215.7725,20.245 216.8925,20.245 C217.8725,20.245 218.3625,20.91 218.3625,21.505 C218.3625,22.03 218.1875,22.345 218.0475,22.45 C217.6975,22.695 217.6275,23.15 217.6275,23.36 C217.6275,23.605 217.8725,23.92 218.3625,23.92 C218.9225,23.92 219.9375,22.94 219.9375,21.54 Z M223.3675,28.89 C219.5175,28.89 216.9975,33.965 216.9975,37.605 C216.9975,40.23 218.4325,41.28 219.8325,41.28 C222.3525,41.28 223.4725,38.935 223.4725,38.34 C223.4725,37.92 223.1925,37.57 222.7375,37.57 C222.4575,37.57 222.1775,37.745 222.0725,38.025 C221.7225,38.97 221.0225,39.81 220.0775,39.81 C219.1675,39.81 218.5725,38.9 218.5725,37.605 C218.5725,34.42 220.5675,30.36 223.2275,30.36 C224.1375,30.36 225.0475,30.99 225.0475,32.67 C225.0475,33.895 224.8025,35.26 224.5925,36.555 C224.4175,37.815 224.2075,38.795 224.2075,39.53 C224.2075,40.23 224.4175,41.21 225.1875,41.21 C225.6075,41.21 225.9925,40.86 225.9925,40.475 C225.9925,40.3 225.9225,40.195 225.8525,40.055 C225.8175,39.95 225.7825,39.81 225.7825,39.6 C225.7825,38.9 225.9925,37.71 226.1325,36.8 C226.3775,35.47 226.5875,33.93 226.5875,32.6 C226.5875,30.185 225.3625,28.89 223.3675,28.89 Z M237.5425,30.325 C237.2625,29.625 236.5625,29.03 235.1275,29.03 C231.6625,29.03 229.2475,32.985 229.2475,36.8 C229.2475,39.95 230.8925,41.35 233.0625,41.35 C235.7225,41.35 237.3675,39.215 237.3675,38.55 C237.3675,38.095 237.1225,37.745 236.7025,37.745 C236.3875,37.745 236.1775,37.955 236.0375,38.2 C235.3375,39.46 234.1125,39.95 233.1675,39.95 C232.3975,39.95 230.8225,39.6 230.8225,36.8 C230.8225,34.21 232.2925,30.535 235.0225,30.535 C235.6525,30.535 236.0025,30.85 236.2475,31.2 C236.4225,31.445 236.6675,31.585 236.9125,31.585 C237.3675,31.585 237.6475,31.235 237.6475,30.815 C237.6475,30.675 237.6125,30.465 237.5425,30.325 Z M244.2975,40.545 C244.2975,40.16 243.9825,39.81 243.5975,39.81 C243.2475,39.74 242.2325,39.565 242.2325,36.8 C242.2325,35.015 242.5475,32.81 243.1775,30.57 C243.8425,30.605 245.0325,30.675 245.6975,30.675 C246.0825,30.675 246.3625,30.395 246.3625,29.975 C246.3625,29.59 245.9775,29.31 245.5925,29.24 C244.6475,29.205 243.9475,29.17 243.4575,29.17 C243.6325,28.4 244.0875,26.545 244.4375,25.495 C244.4725,25.425 244.5075,25.25 244.5075,25.11 C244.5075,24.69 244.1575,24.41 243.7025,24.41 C243.3875,24.445 243.1075,24.655 243.0025,24.97 C242.6175,26.37 242.1975,27.98 241.9175,29.135 C240.6575,29.17 239.1875,29.205 239.1875,30.185 C239.1875,30.57 239.4325,30.78 239.6775,30.78 C240.1675,30.78 240.5525,30.605 241.5675,30.605 C240.9025,33.265 240.6925,35.225 240.6925,36.905 C240.6925,39.6 241.5325,41.035 243.2825,41.315 C243.3175,41.315 243.4925,41.35 243.5275,41.35 C243.9475,41.315 244.2975,40.965 244.2975,40.545 Z M253.2225,28.82 C250.9825,28.82 249.7925,30.57 249.7925,32.25 C249.7925,33.86 250.8425,35.19 252.8725,35.19 C253.7475,35.19 253.8175,34.63 253.8175,34.42 C253.8175,34 253.4675,33.65 253.0125,33.65 C252.4175,33.65 251.3675,33.65 251.3675,32.25 C251.3675,31.41 251.8225,30.29 253.1525,30.29 C254.8325,30.29 255.3925,32.18 255.3925,33.58 C255.3925,36.555 253.7825,39.88 251.2625,39.88 C249.4775,39.88 248.7425,37.745 248.7425,35.925 C248.7425,35.19 248.8475,34.21 249.0575,33.685 C249.0925,33.58 249.1275,33.475 249.1275,33.335 C249.1275,32.95 248.8125,32.565 248.3925,32.565 C248.0775,32.565 247.7625,32.81 247.6575,33.125 C247.3075,34.07 247.1675,34.98 247.1675,35.96 C247.1675,39.215 248.7775,41.35 251.1925,41.35 C254.7625,41.35 256.9675,37.325 256.9675,33.58 C256.9675,30.78 255.5325,28.82 253.2225,28.82 Z M260.7825,39.46 C261.5875,34.98 262.2875,30.71 265.9275,30.5 C266.3475,30.465 266.6625,30.22 266.6625,29.8 C266.6625,29.345 266.2775,29.03 265.8225,29.03 C264.0725,29.03 262.1825,30.08 261.4125,32.39 C261.4825,30.64 260.5025,29.45 259.8375,29.45 C259.4525,29.45 259.1025,29.8 259.1025,30.22 C259.1025,30.43 259.1375,30.64 259.3125,30.78 C259.7675,31.235 260.0825,31.83 260.0825,33.37 C260.0825,34.525 259.1025,40.265 259.1025,40.51 C259.1025,40.93 259.3825,41.28 259.8025,41.28 C260.1875,41.28 260.5025,41.035 260.5725,40.615 L260.7825,39.46 Z M269.7775,29.975 C269.7775,29.52 269.4275,29.17 269.0075,29.17 C268.3425,29.17 268.2375,29.73 268.1675,29.975 C267.9225,31.27 267.3975,33.93 267.3975,36.345 C267.3975,38.795 268.1325,41.14 270.3025,41.14 C272.0175,41.14 273.8725,39.11 274.7475,36.66 C274.5375,38.795 274.0125,41.63 273.4525,43.38 C272.8225,43.17 272.0175,43.065 271.2125,43.065 C267.5375,43.065 263.0225,45.34 263.0225,48.945 C263.0225,51.08 264.5625,51.92 266.2775,51.92 C269.3925,51.92 272.8225,49.4 274.3625,45.445 C274.6775,45.585 275.4475,46.11 275.4475,47.09 C275.4475,47.51 275.7625,47.86 276.1825,47.86 C276.6025,47.86 276.9525,47.51 276.9525,47.09 C276.9525,45.76 276.0775,44.605 274.9225,43.94 C275.8325,40.93 276.0775,38.06 276.1825,36.59 C276.2875,34.945 276.5325,31.515 276.5325,29.94 C276.5325,29.52 276.2525,29.17 275.8325,29.17 C275.4125,29.17 275.0275,29.485 275.0275,29.905 C275.0625,34.14 272.4375,39.6 270.3025,39.6 C269.1125,39.6 268.9725,37.36 268.9725,36.345 C268.9725,34.105 269.4625,31.62 269.7425,30.115 L269.7775,29.975 Z M266.4875,50.485 C265.5425,50.485 264.5975,49.96 264.5975,48.84 C264.5975,46.355 268.3075,44.5 271.2125,44.5 C271.8075,44.5 272.5425,44.57 273.0325,44.71 C271.6675,48.21 268.9025,50.485 266.4875,50.485 Z" id="Charlies-chocolate-f" fill="#FFFFFF"></path>
        <path d="M12.3120117,50.359375 L14.4873047,50.359375 L14.4873047,51.1757812 L12.3120117,51.1757812 L12.3120117,50.359375 Z M23.3818359,47.6577148 L23.8652344,46.9648438 L24.2573242,46.9648438 L24.2895508,49.8598633 L23.9350586,49.8598633 C23.7130523,48.971838 23.3845237,48.3237325 22.9494629,47.9155273 C22.5144021,47.5073222 22.0140002,47.3032227 21.4482422,47.3032227 C20.9755836,47.3032227 20.5888687,47.44466 20.2880859,47.7275391 C19.9873032,48.0104181 19.8369141,48.355955 19.8369141,48.7641602 C19.8369141,49.0183932 19.8942052,49.2412914 20.0087891,49.4328613 C20.123373,49.6244313 20.2943511,49.7801915 20.5217285,49.9001465 C20.749106,50.0201015 21.177894,50.1481113 21.8081055,50.2841797 C22.69255,50.47754 23.3129051,50.6726878 23.6691895,50.8696289 C24.0254738,51.06657 24.2913403,51.314533 24.4667969,51.6135254 C24.6422535,51.9125178 24.7299805,52.2625305 24.7299805,52.6635742 C24.7299805,53.3797236 24.4891788,53.9732236 24.0075684,54.4440918 C23.5259579,54.91496 22.9038124,55.1503906 22.1411133,55.1503906 C21.3211222,55.1503906 20.6085642,54.8854193 20.003418,54.3554688 L19.3964844,55.0966797 L19.0097656,55.0966797 L19.0097656,52.019043 L19.3964844,52.019043 C19.5468758,52.86768 19.8834609,53.5372697 20.40625,54.027832 C20.9290391,54.5183944 21.5180631,54.7636719 22.1733398,54.7636719 C22.7032904,54.7636719 23.1356591,54.6070165 23.470459,54.2937012 C23.8052588,53.9803858 23.9726562,53.5999371 23.9726562,53.1523438 C23.9726562,52.8981107 23.9099941,52.6752125 23.784668,52.4836426 C23.6593418,52.2920726 23.4606133,52.1309414 23.1884766,52.0002441 C22.9163398,51.8695469 22.3810261,51.7111012 21.5825195,51.5249023 C20.7052365,51.317219 20.1072607,51.0844739 19.7885742,50.8266602 C19.3409808,50.461424 19.1171875,49.9440138 19.1171875,49.2744141 C19.1171875,48.5761684 19.3400857,48.0041526 19.7858887,47.5583496 C20.2316917,47.1125466 20.8019171,46.8896484 21.496582,46.8896484 C21.8295915,46.8896484 22.1464829,46.9487299 22.4472656,47.0668945 C22.7480484,47.1850592 23.0595687,47.3819973 23.3818359,47.6577148 Z M30.9013672,54.4467773 L31.0947266,54.7475586 C30.833332,55.0161146 30.5432959,55.1503906 30.2246094,55.1503906 C29.9811186,55.1503906 29.7761239,55.0841478 29.6096191,54.9516602 C29.4431144,54.8191725 29.2972011,54.5864274 29.171875,54.253418 C28.831704,54.6114927 28.5327161,54.850504 28.2749023,54.970459 C28.0170886,55.090414 27.7073586,55.1503906 27.3457031,55.1503906 C26.8300755,55.1503906 26.4379896,55.0393891 26.1694336,54.8173828 C25.9008776,54.5953765 25.7666016,54.3107114 25.7666016,53.9633789 C25.7666016,53.4405898 26.073646,53.0064308 26.6877441,52.6608887 C27.3018423,52.3153466 28.1191355,52.085287 29.1396484,51.9707031 L29.1396484,51.2080078 C29.1396484,50.935871 29.0304373,50.703126 28.8120117,50.5097656 C28.5935861,50.3164053 28.3160824,50.2197266 27.9794922,50.2197266 C27.6679672,50.2197266 27.3994152,50.284179 27.1738281,50.4130859 C27.0126945,50.5097661 26.9321289,50.6046545 26.9321289,50.6977539 C26.9321289,50.7514651 26.9750972,50.8356114 27.0610352,50.9501953 C27.1648768,51.0934252 27.2167969,51.2205398 27.2167969,51.331543 C27.2167969,51.4926766 27.1648768,51.6242671 27.0610352,51.7263184 C26.9571935,51.8283697 26.8211271,51.8793945 26.652832,51.8793945 C26.4737947,51.8793945 26.3243007,51.8185227 26.2043457,51.6967773 C26.0843907,51.5750319 26.0244141,51.4192718 26.0244141,51.2294922 C26.0244141,50.8749982 26.2240377,50.5509455 26.623291,50.2573242 C27.0225443,49.963703 27.5462207,49.8168945 28.1943359,49.8168945 C28.7923207,49.8168945 29.2488591,49.9457995 29.5639648,50.2036133 C29.8790706,50.4650078 30.0366211,50.7818992 30.0366211,51.1542969 L30.0366211,53.9042969 C30.0366211,54.1477877 30.0760087,54.3268223 30.1547852,54.4414062 C30.2335616,54.5595709 30.3356114,54.6186523 30.4609375,54.6186523 C30.6005866,54.6186523 30.7473951,54.5613613 30.9013672,54.4467773 Z M29.1396484,52.3251953 C28.2301387,52.4505215 27.5856139,52.654621 27.2060547,52.9375 C26.9231757,53.1523448 26.7817383,53.4567038 26.7817383,53.8505859 C26.7817383,54.1263035 26.8551425,54.3420402 27.0019531,54.4978027 C27.1487638,54.6535652 27.3403308,54.7314453 27.5766602,54.7314453 C27.9991883,54.7314453 28.3653142,54.5712093 28.6750488,54.2507324 C28.9847834,53.9302556 29.1396484,53.5283227 29.1396484,53.0449219 L29.1396484,52.3251953 Z M33.0229492,47.9155273 L33.3881836,47.9155273 L33.3881836,49.9672852 L35.015625,49.9672852 L35.015625,50.4614258 L33.3881836,50.4614258 L33.3881836,53.6894531 C33.3881836,53.9687514 33.4544264,54.1826978 33.5869141,54.3312988 C33.7194017,54.4798998 33.8876943,54.5541992 34.0917969,54.5541992 C34.3352877,54.5541992 34.5429679,54.4414074 34.7148438,54.2158203 C34.8867196,53.9902332 34.986979,53.6178411 35.015625,53.0986328 L35.3754883,53.0986328 C35.3540038,53.7682325 35.2018243,54.2650537 34.9189453,54.5891113 C34.6360663,54.9131689 34.2690452,55.0751953 33.8178711,55.0751953 C33.4025044,55.0751953 33.0775565,54.9615083 32.8430176,54.7341309 C32.6084786,54.5067534 32.4912109,54.2086607 32.4912109,53.8398438 L32.4912109,50.4614258 L31.6157227,50.4614258 L31.6157227,50.0854492 C32.0131856,50.017415 32.3157542,49.8509128 32.5234375,49.5859375 C32.8313817,49.1884746 32.997884,48.6316768 33.0229492,47.9155273 Z M37.2768555,46.9648438 C37.4379891,46.9648438 37.5794265,47.0257155 37.7011719,47.1474609 C37.8229173,47.2692063 37.8837891,47.4124341 37.8837891,47.5771484 C37.8837891,47.7382821 37.8247076,47.8779291 37.706543,47.9960938 C37.5883783,48.1142584 37.4469409,48.1733398 37.2822266,48.1733398 C37.1175122,48.1733398 36.9751796,48.1133632 36.8552246,47.9934082 C36.7352696,47.8734532 36.675293,47.732911 36.675293,47.5717773 C36.675293,47.4106437 36.7361648,47.2692063 36.8579102,47.1474609 C36.9796556,47.0257155 37.1193026,46.9648438 37.2768555,46.9648438 Z M35.8857422,49.9672852 L37.8837891,49.9082031 L37.8837891,54.2373047 C37.8837891,54.3554693 37.9124346,54.4396156 37.9697266,54.4897461 C38.0520837,54.561361 38.1559239,54.597168 38.28125,54.597168 L38.8505859,54.597168 L38.8505859,55 L35.9931641,55 L35.9931641,54.597168 L36.5249023,54.597168 C36.6824552,54.597168 36.7979326,54.5586755 36.8713379,54.4816895 C36.9447432,54.4047034 36.9814453,54.2928067 36.9814453,54.1459961 L36.9814453,50.9770508 C36.9814453,50.7765289 36.9241542,50.6252447 36.8095703,50.5231934 C36.6949864,50.4211421 36.5249035,50.3701172 36.2993164,50.3701172 L35.8857422,50.3701172 L35.8857422,49.9672852 Z M40.0483398,53.1040039 C40.2703462,53.7234731 40.5254706,54.1522612 40.8137207,54.3903809 C41.1019708,54.6285005 41.4573547,54.7475586 41.8798828,54.7475586 C42.2701842,54.7475586 42.5700673,54.6625171 42.779541,54.4924316 C42.9890147,54.3223462 43.09375,54.1066094 43.09375,53.8452148 C43.09375,53.6948235 43.0552575,53.563233 42.9782715,53.4504395 C42.9012854,53.3376459 42.7947598,53.2534996 42.6586914,53.197998 C42.522623,53.1424965 42.1699247,53.0610357 41.6005859,52.9536133 C41.0563124,52.8461909 40.6767589,52.733399 40.4619141,52.6152344 C40.2470692,52.4970697 40.0796718,52.3341482 39.9597168,52.1264648 C39.8397618,51.9187815 39.7797852,51.6931978 39.7797852,51.449707 C39.7797852,51.0808901 39.9033191,50.7460953 40.1503906,50.4453125 C40.4690771,50.0621726 40.9148734,49.8706055 41.487793,49.8706055 C41.9246441,49.8706055 42.3292625,50.0084622 42.7016602,50.2841797 L43.0561523,49.9082031 L43.2763672,49.9082031 L43.4160156,51.7021484 L43.0561523,51.7021484 C42.8985995,51.1936824 42.6855482,50.8275565 42.4169922,50.6037598 C42.1484362,50.3799631 41.817222,50.2680664 41.4233398,50.2680664 C41.0831689,50.2680664 40.8164072,50.3513175 40.6230469,50.5178223 C40.4296865,50.684327 40.3330078,50.8875314 40.3330078,51.1274414 C40.3330078,51.3387055 40.4225251,51.5141595 40.6015625,51.6538086 C40.7770191,51.7970385 41.1207657,51.9098303 41.6328125,51.9921875 C42.2272165,52.0924484 42.6139314,52.1765947 42.7929688,52.2446289 C43.08659,52.3520513 43.313964,52.5176584 43.4750977,52.7414551 C43.6362313,52.9652518 43.7167969,53.2382796 43.7167969,53.5605469 C43.7167969,54.0045595 43.5422381,54.3805323 43.1931152,54.6884766 C42.8439924,54.9964208 42.4008816,55.1503906 41.8637695,55.1503906 C41.3660457,55.1503906 40.9041362,54.9856787 40.4780273,54.65625 L40.0859375,55.1074219 L39.8012695,55.1074219 L39.6938477,53.1040039 L40.0483398,53.1040039 Z M46.2573242,49.9672852 L47.5141602,49.9672852 L47.5141602,50.4345703 L46.2573242,50.4345703 L46.2573242,54.1083984 C46.2573242,54.2766935 46.2967118,54.3948564 46.3754883,54.4628906 C46.4829107,54.5524093 46.6332998,54.597168 46.8266602,54.597168 L47.5141602,54.597168 L47.5141602,55 L44.4311523,55 L44.4311523,54.597168 L44.8554688,54.597168 C45.0452483,54.597168 45.177734,54.5649417 45.2529297,54.5004883 C45.3281254,54.4360348 45.3657227,54.3357754 45.3657227,54.199707 L45.3657227,50.4345703 L44.4956055,50.4345703 L44.4956055,49.9672852 L45.3657227,49.9672852 L45.3657227,49.5913086 C45.3657227,48.7032833 45.5501284,48.0256371 45.9189453,47.5583496 C46.2877623,47.0910621 46.7443007,46.8574219 47.2885742,46.8574219 C47.6931986,46.8574219 48.0091948,46.9558909 48.2365723,47.152832 C48.4639497,47.3497731 48.5776367,47.607583 48.5776367,47.9262695 C48.5776367,48.1339529 48.5230311,48.2977696 48.4138184,48.4177246 C48.3046056,48.5376796 48.1658537,48.5976562 47.9975586,48.5976562 C47.8471672,48.5976562 47.7227381,48.5493169 47.6242676,48.4526367 C47.525797,48.3559565 47.4765625,48.234213 47.4765625,48.0874023 C47.4765625,47.9191072 47.541015,47.7812505 47.6699219,47.6738281 C47.7737635,47.5878902 47.8256836,47.5234377 47.8256836,47.4804688 C47.8256836,47.419596 47.7854008,47.3640953 47.704834,47.3139648 C47.6242672,47.2638344 47.5034188,47.2387695 47.3422852,47.2387695 C47.0379217,47.2387695 46.7810069,47.3739407 46.5715332,47.6442871 C46.3620595,47.9146335 46.2573242,48.3165663 46.2573242,48.8500977 L46.2573242,49.9672852 Z M48.0888672,49.9672852 L50.5004883,49.9672852 L50.5004883,50.3325195 L50.2749023,50.3325195 C50.0636383,50.3325195 49.9195154,50.3602699 49.8425293,50.4157715 C49.7655432,50.4712731 49.7270508,50.5509435 49.7270508,50.6547852 C49.7270508,50.7013349 49.7377929,50.7478839 49.7592773,50.7944336 L51.1611328,53.8237305 L52.203125,51.3100586 C52.2783207,51.1310212 52.315918,50.9555673 52.315918,50.7836914 C52.315918,50.6512038 52.2639979,50.5482588 52.1601562,50.4748535 C52.0563146,50.4014482 51.8486344,50.354004 51.5371094,50.3325195 L51.5371094,49.9672852 L53.6318359,49.9672852 L53.6318359,50.3325195 C53.2272115,50.3719077 52.9550788,50.5527328 52.8154297,50.875 L50.9570312,55.2094727 C50.6383448,55.9435258 50.3196631,56.4484036 50.0009766,56.7241211 C49.6787093,57.0034194 49.3331724,57.1430664 48.9643555,57.1430664 C48.6957994,57.1430664 48.4800627,57.0696622 48.3171387,56.9228516 C48.1542147,56.7760409 48.0727539,56.5952159 48.0727539,56.3803711 C48.0727539,56.2192375 48.1228836,56.0867518 48.2231445,55.9829102 C48.3234054,55.8790685 48.4487297,55.8271484 48.5991211,55.8271484 C48.7351895,55.8271484 48.8497717,55.8719071 48.9428711,55.9614258 C49.0359705,56.0509445 49.0825195,56.1583653 49.0825195,56.2836914 C49.0825195,56.3230796 49.0753581,56.37679 49.0610352,56.4448242 C49.0467122,56.4985354 49.0395508,56.5379231 49.0395508,56.5629883 C49.0395508,56.6489262 49.0950515,56.6918945 49.2060547,56.6918945 C49.3242193,56.6918945 49.4576002,56.6489262 49.6062012,56.5629883 C49.7548022,56.4770504 49.893554,56.3391937 50.0224609,56.1494141 C50.1513678,55.9596345 50.3769515,55.5406933 50.6992188,54.8925781 L48.7924805,50.7944336 C48.7244463,50.6512037 48.6394048,50.5446781 48.5373535,50.4748535 C48.4353022,50.4050289 48.2858083,50.3575848 48.0888672,50.3325195 L48.0888672,49.9672852 Z M55.4042969,46.9648438 C55.5654305,46.9648438 55.7068679,47.0257155 55.8286133,47.1474609 C55.9503587,47.2692063 56.0112305,47.4124341 56.0112305,47.5771484 C56.0112305,47.7382821 55.952149,47.8779291 55.8339844,47.9960938 C55.7158197,48.1142584 55.5743823,48.1733398 55.409668,48.1733398 C55.2449536,48.1733398 55.102621,48.1133632 54.982666,47.9934082 C54.862711,47.8734532 54.8027344,47.732911 54.8027344,47.5717773 C54.8027344,47.4106437 54.8636062,47.2692063 54.9853516,47.1474609 C55.107097,47.0257155 55.246744,46.9648438 55.4042969,46.9648438 Z M54.0131836,49.9672852 L56.0112305,49.9082031 L56.0112305,54.2373047 C56.0112305,54.3554693 56.039876,54.4396156 56.097168,54.4897461 C56.1795252,54.561361 56.2833653,54.597168 56.4086914,54.597168 L56.9780273,54.597168 L56.9780273,55 L54.1206055,55 L54.1206055,54.597168 L54.6523438,54.597168 C54.8098966,54.597168 54.925374,54.5586755 54.9987793,54.4816895 C55.0721846,54.4047034 55.1088867,54.2928067 55.1088867,54.1459961 L55.1088867,50.9770508 C55.1088867,50.7765289 55.0515956,50.6252447 54.9370117,50.5231934 C54.8224278,50.4211421 54.6523449,50.3701172 54.4267578,50.3701172 L54.0131836,50.3701172 L54.0131836,49.9672852 Z M57.5742188,49.9672852 L59.2446289,49.8652344 C59.3126631,50.1803401 59.3627928,50.5491515 59.3950195,50.9716797 C59.6206066,50.6064435 59.8864731,50.3325204 60.192627,50.1499023 C60.4987808,49.9672842 60.8452129,49.8759766 61.2319336,49.8759766 C61.5649431,49.8759766 61.8442372,49.9413242 62.0698242,50.0720215 C62.2954113,50.2027188 62.4762363,50.4095038 62.6123047,50.6923828 C62.7483731,50.9752618 62.8164062,51.2921532 62.8164062,51.6430664 L62.8164062,54.0922852 C62.8164062,54.2749033 62.8575842,54.4047034 62.9399414,54.4816895 C63.0222986,54.5586755 63.1601553,54.597168 63.3535156,54.597168 L63.7080078,54.597168 L63.7080078,55 L61.0546875,55 L61.0546875,54.597168 L61.3071289,54.597168 C61.5434582,54.597168 61.7081701,54.5595707 61.8012695,54.484375 C61.894369,54.4091793 61.940918,54.2963875 61.940918,54.1459961 L61.940918,51.9921875 C61.940918,51.5231096 61.8693041,51.1757824 61.7260742,50.9501953 C61.5255524,50.6279281 61.2211934,50.4667969 60.8129883,50.4667969 C60.4083639,50.4667969 60.0708835,50.6297184 59.8005371,50.9555664 C59.5301907,51.2814144 59.3950195,51.7057266 59.3950195,52.2285156 L59.3950195,54.0922852 C59.3950195,54.2749033 59.4370927,54.4047034 59.5212402,54.4816895 C59.6053878,54.5586755 59.7441397,54.597168 59.9375,54.597168 L60.2866211,54.597168 L60.2866211,55 L57.6225586,55 L57.6225586,54.597168 L57.9716797,54.597168 C58.1471363,54.597168 58.2805171,54.561361 58.3718262,54.4897461 C58.4631352,54.4181312 58.5087891,54.3286138 58.5087891,54.2211914 L58.5087891,50.9716797 C58.5087891,50.7568349 58.4506028,50.5939133 58.3342285,50.4829102 C58.2178542,50.371907 58.0504568,50.3164062 57.8320312,50.3164062 L57.5742188,50.3164062 L57.5742188,49.9672852 Z M68.1499023,50.2519531 C68.5079771,49.8902977 68.8374008,49.7094727 69.1381836,49.7094727 C69.3172209,49.7094727 69.4658197,49.7667637 69.5839844,49.8813477 C69.702149,49.9959316 69.7612305,50.1355786 69.7612305,50.300293 C69.7612305,50.4327806 69.7209477,50.5428869 69.6403809,50.6306152 C69.5598141,50.7183435 69.4658208,50.762207 69.3583984,50.762207 C69.1542959,50.762207 69.0164392,50.6368828 68.9448242,50.3862305 C68.9161782,50.2788081 68.8678389,50.2250977 68.7998047,50.2250977 C68.6780593,50.2250977 68.5455736,50.3056633 68.4023438,50.4667969 C68.5563159,50.678061 68.6619463,50.8615715 68.7192383,51.017334 C68.7765302,51.1730965 68.8051758,51.3404939 68.8051758,51.5195312 C68.8051758,51.8310562 68.7299812,52.1058745 68.5795898,52.3439941 C68.4291985,52.5821138 68.1794451,52.7924796 67.8303223,52.9750977 C67.4811994,53.1577158 67.1472998,53.2490234 66.8286133,53.2490234 L66.2431641,53.2490234 C65.8277974,53.2490234 65.552084,53.2919918 65.4160156,53.3779297 C65.2799472,53.4674484 65.2119141,53.5981437 65.2119141,53.7700195 C65.2119141,53.9096687 65.2674148,54.0170895 65.378418,54.0922852 C65.4894211,54.1674808 65.6988917,54.2050781 66.0068359,54.2050781 L67.3334961,54.1782227 C68.0030958,54.1782227 68.4855942,54.2901193 68.7810059,54.513916 C69.0764175,54.7377127 69.2241211,55.0447572 69.2241211,55.4350586 C69.2241211,55.8647482 69.0558285,56.2263983 68.7192383,56.5200195 C68.2501604,56.9353862 67.5501349,57.1430664 66.6191406,57.1430664 C65.84928,57.1430664 65.2781594,57.001629 64.9057617,56.71875 C64.6121405,56.4967437 64.465332,56.2478855 64.465332,55.972168 C64.465332,55.7609039 64.5593252,55.5675465 64.7473145,55.3920898 C64.9353037,55.2166332 65.2512999,55.0859379 65.6953125,55 C65.3408185,54.9140621 65.0740569,54.7878426 64.8950195,54.6213379 C64.7159822,54.4548332 64.6264648,54.2480481 64.6264648,54.0009766 C64.6264648,53.7718087 64.6989739,53.5721851 64.8439941,53.4020996 C64.9890144,53.2320141 65.2405581,53.0861009 65.5986328,52.9643555 C65.2942693,52.7960604 65.0651049,52.592856 64.9111328,52.3547363 C64.7571607,52.1166166 64.6801758,51.8435888 64.6801758,51.5356445 C64.6801758,51.0486629 64.8717429,50.6404639 65.2548828,50.3110352 C65.6380227,49.9816064 66.1357391,49.8168945 66.7480469,49.8168945 C66.9986992,49.8168945 67.240396,49.8527015 67.4731445,49.9243164 C67.7058931,49.9959313 67.9314768,50.1051425 68.1499023,50.2519531 Z M66.7373047,50.1606445 C66.4186182,50.1606445 66.1554372,50.2779122 65.9477539,50.5124512 C65.7400706,50.7469901 65.6362305,51.0755187 65.6362305,51.4980469 C65.6362305,51.949221 65.7400706,52.2992338 65.9477539,52.5480957 C66.1554372,52.7969576 66.4204085,52.9213867 66.7426758,52.9213867 C67.064943,52.9213867 67.3290192,52.8005383 67.5349121,52.5588379 C67.7408051,52.3171375 67.84375,51.9707054 67.84375,51.5195312 C67.84375,51.1005838 67.7390147,50.7693697 67.529541,50.5258789 C67.3200673,50.2823881 67.0559912,50.1606445 66.7373047,50.1606445 Z M67.0541992,55.0053711 C66.3953418,55.0053711 65.9253758,55.0966788 65.6442871,55.2792969 C65.3631985,55.461915 65.2226562,55.6821276 65.2226562,55.9399414 C65.2226562,56.1834322 65.3282867,56.3749993 65.5395508,56.5146484 C65.8188491,56.7008473 66.216306,56.7939453 66.7319336,56.7939453 C67.3478221,56.7939453 67.8115219,56.6918956 68.1230469,56.487793 C68.4345719,56.2836904 68.590332,56.0563164 68.590332,55.8056641 C68.590332,55.6588534 68.5419927,55.5218919 68.4453125,55.3947754 C68.3486323,55.2676589 68.1946625,55.1709801 67.9833984,55.1047363 C67.7721344,55.0384925 67.4624044,55.0053711 67.0541992,55.0053711 Z M73.1450195,49.9672852 L75.5566406,49.9672852 L75.5566406,50.3325195 L75.3310547,50.3325195 C75.1197906,50.3325195 74.9756677,50.3602699 74.8986816,50.4157715 C74.8216956,50.4712731 74.7832031,50.5509435 74.7832031,50.6547852 C74.7832031,50.7013349 74.7939452,50.7478839 74.8154297,50.7944336 L76.2172852,53.8237305 L77.2592773,51.3100586 C77.334473,51.1310212 77.3720703,50.9555673 77.3720703,50.7836914 C77.3720703,50.6512038 77.3201503,50.5482588 77.2163086,50.4748535 C77.1124669,50.4014482 76.9047867,50.354004 76.5932617,50.3325195 L76.5932617,49.9672852 L78.6879883,49.9672852 L78.6879883,50.3325195 C78.2833639,50.3719077 78.0112312,50.5527328 77.871582,50.875 L76.0131836,55.2094727 C75.6944971,55.9435258 75.3758154,56.4484036 75.0571289,56.7241211 C74.7348617,57.0034194 74.3893248,57.1430664 74.0205078,57.1430664 C73.7519518,57.1430664 73.536215,57.0696622 73.373291,56.9228516 C73.210367,56.7760409 73.1289062,56.5952159 73.1289062,56.3803711 C73.1289062,56.2192375 73.179036,56.0867518 73.2792969,55.9829102 C73.3795578,55.8790685 73.5048821,55.8271484 73.6552734,55.8271484 C73.7913418,55.8271484 73.905924,55.8719071 73.9990234,55.9614258 C74.0921229,56.0509445 74.1386719,56.1583653 74.1386719,56.2836914 C74.1386719,56.3230796 74.1315105,56.37679 74.1171875,56.4448242 C74.1028645,56.4985354 74.0957031,56.5379231 74.0957031,56.5629883 C74.0957031,56.6489262 74.1512039,56.6918945 74.262207,56.6918945 C74.3803717,56.6918945 74.5137525,56.6489262 74.6623535,56.5629883 C74.8109545,56.4770504 74.9497064,56.3391937 75.0786133,56.1494141 C75.2075202,55.9596345 75.4331039,55.5406933 75.7553711,54.8925781 L73.8486328,50.7944336 C73.7805986,50.6512037 73.6955572,50.5446781 73.5935059,50.4748535 C73.4914546,50.4050289 73.3419606,50.3575848 73.1450195,50.3325195 L73.1450195,49.9672852 Z M81.5400391,49.8168945 C82.2168003,49.8168945 82.7852353,50.0612769 83.2453613,50.5500488 C83.7054873,51.0388208 83.9355469,51.6824504 83.9355469,52.480957 C83.9355469,53.0323921 83.8326019,53.5023581 83.626709,53.8908691 C83.420816,54.2793802 83.1271992,54.5864247 82.7458496,54.8120117 C82.3645,55.0375988 81.9536155,55.1503906 81.5131836,55.1503906 C80.8614876,55.1503906 80.3091657,54.9033228 79.8562012,54.4091797 C79.4032367,53.9150366 79.1767578,53.2740925 79.1767578,52.4863281 C79.1767578,51.694983 79.4041318,51.0522486 79.8588867,50.5581055 C80.3136416,50.0639624 80.8740201,49.8168945 81.5400391,49.8168945 Z M81.5400391,50.1982422 C81.1389954,50.1982422 80.8095716,50.3799624 80.5517578,50.7434082 C80.293944,51.106854 80.1650391,51.6806601 80.1650391,52.4648438 C80.1650391,53.2633503 80.2930489,53.8470034 80.5490723,54.2158203 C80.8050957,54.5846373 81.1354146,54.769043 81.5400391,54.769043 C81.9589865,54.769043 82.2982572,54.5846373 82.5578613,54.2158203 C82.8174655,53.8470034 82.9472656,53.2436565 82.9472656,52.4057617 C82.9472656,51.6287396 82.8192558,51.0665707 82.5632324,50.7192383 C82.307209,50.3719058 81.966148,50.1982422 81.5400391,50.1982422 Z M86.3901367,49.8759766 L86.3901367,53.2114258 C86.3901367,53.6196309 86.4930817,53.934732 86.6989746,54.1567383 C86.9048676,54.3787446 87.170734,54.4897461 87.496582,54.4897461 C87.8976257,54.4897461 88.2386867,54.3277197 88.5197754,54.0036621 C88.800864,53.6796045 88.9414062,53.274091 88.9414062,52.7871094 L88.9414062,50.9018555 C88.9414062,50.7299796 88.8796393,50.5965988 88.7561035,50.501709 C88.6325677,50.4068192 88.3953468,50.354004 88.0444336,50.3432617 L88.0444336,49.9672852 L89.8115234,49.8759766 L89.8115234,54.0063477 C89.8115234,54.1961273 89.8652338,54.3420405 89.9726562,54.4440918 C90.0800787,54.5461431 90.2304678,54.597168 90.4238281,54.597168 L90.7407227,54.597168 L90.7407227,54.9570312 L89.0488281,55 L88.9414062,54.0063477 C88.6406235,54.3608416 88.3380549,54.6276033 88.0336914,54.8066406 C87.7293279,54.985678 87.4213883,55.0751953 87.1098633,55.0751953 C86.6551084,55.0751953 86.2737646,54.9230158 85.9658203,54.6186523 C85.6542953,54.3178696 85.4985352,53.8076208 85.4985352,53.0878906 L85.4985352,50.9018555 C85.4985352,50.7084951 85.4215502,50.5616867 85.2675781,50.4614258 C85.1601557,50.3898108 84.9399431,50.3504232 84.6069336,50.3432617 L84.6069336,49.9672852 L86.3901367,49.8759766 Z M91.3046875,49.9672852 L93.1147461,49.8759766 L93.1147461,51.9116211 C93.3081064,51.2420214 93.5408515,50.7353533 93.8129883,50.3916016 C94.0851251,50.0478498 94.4217102,49.8759766 94.8227539,49.8759766 C95.0948907,49.8759766 95.3124178,49.9592277 95.4753418,50.1257324 C95.6382658,50.2922372 95.7197266,50.5151353 95.7197266,50.7944336 C95.7197266,51.0200207 95.665121,51.1954746 95.5559082,51.3208008 C95.4466954,51.4461269 95.3097339,51.5087891 95.1450195,51.5087891 C94.9838859,51.5087891 94.8540858,51.4550787 94.7556152,51.3476562 C94.6571447,51.2402338 94.6079102,51.0952158 94.6079102,50.9125977 C94.6079102,50.794433 94.6365557,50.6834315 94.6938477,50.5795898 C94.7475589,50.4864904 94.7744141,50.4309897 94.7744141,50.4130859 C94.7744141,50.3593747 94.7403975,50.3325195 94.6723633,50.3325195 C94.5255527,50.3325195 94.3590504,50.4184562 94.1728516,50.590332 C93.9150378,50.8302421 93.7163093,51.1596659 93.5766602,51.5786133 C93.3618153,52.2303092 93.2543945,52.7513001 93.2543945,53.1416016 L93.2543945,54.2211914 C93.2543945,54.3429368 93.2973629,54.4360348 93.3833008,54.5004883 C93.4692387,54.5649417 93.6160471,54.597168 93.8237305,54.597168 L94.4628906,54.597168 L94.4628906,55 L91.3369141,55 L91.3369141,54.597168 L91.8364258,54.597168 C92.0047209,54.597168 92.1318355,54.5640466 92.2177734,54.4978027 C92.3037114,54.4315589 92.3466797,54.3518885 92.3466797,54.2587891 L92.3466797,51.0522461 C92.3466797,50.8087553 92.2947596,50.6306158 92.190918,50.5178223 C92.0870763,50.4050287 91.9384775,50.3486328 91.7451172,50.3486328 L91.3046875,50.3486328 L91.3046875,49.9672852 Z M99.6352539,49.9672852 L101.074707,49.8759766 C101.153483,50.251955 101.205404,50.6100243 101.230469,50.9501953 C101.502606,50.5563131 101.774738,50.2788094 102.046875,50.1176758 C102.319012,49.9565422 102.618,49.8759766 102.943848,49.8759766 C103.29118,49.8759766 103.577636,49.9672842 103.803223,50.1499023 C104.02881,50.3325204 104.202473,50.629718 104.324219,51.0415039 C104.564129,50.6512025 104.83089,50.359376 105.124512,50.1660156 C105.418133,49.9726553 105.738605,49.8759766 106.085938,49.8759766 C106.544273,49.8759766 106.88802,50.0120429 107.117188,50.2841797 C107.410809,50.6422544 107.557617,51.1041638 107.557617,51.6699219 L107.557617,54.1674805 C107.557617,54.3178718 107.595214,54.4199216 107.67041,54.4736328 C107.770671,54.55599 107.91927,54.597168 108.116211,54.597168 L108.368652,54.597168 L108.368652,55 L105.838867,55 L105.838867,54.597168 L106.091309,54.597168 C106.306153,54.597168 106.456543,54.561361 106.54248,54.4897461 C106.628418,54.4181312 106.671387,54.3107104 106.671387,54.1674805 L106.671387,51.6699219 C106.671387,51.2975242 106.580079,51.0092784 106.397461,50.8051758 C106.214843,50.6010732 105.974936,50.4990234 105.677734,50.4990234 C105.452147,50.4990234 105.248048,50.5590001 105.06543,50.6789551 C104.882812,50.7989101 104.739584,50.9698882 104.635742,51.1918945 C104.48177,51.510581 104.404785,51.7809234 104.404785,52.0029297 L104.404785,54.1674805 C104.404785,54.3142911 104.444173,54.4226071 104.522949,54.4924316 C104.601726,54.5622562 104.723469,54.597168 104.888184,54.597168 L105.231934,54.597168 L105.231934,55 L102.669922,55 L102.669922,54.597168 L102.959961,54.597168 C103.142579,54.597168 103.278645,54.561361 103.368164,54.4897461 C103.457683,54.4181312 103.502441,54.3268235 103.502441,54.2158203 L103.502441,51.8955078 C103.502441,51.4049455 103.41561,51.0486665 103.241943,50.8266602 C103.068277,50.6046538 102.834637,50.4936523 102.541016,50.4936523 C102.161456,50.4936523 101.86963,50.6225573 101.665527,50.8803711 C101.375487,51.2456073 101.230469,51.6717098 101.230469,52.1586914 L101.230469,54.1674805 C101.230469,54.3214526 101.264485,54.427083 101.33252,54.484375 C101.4292,54.5595707 101.579589,54.597168 101.783691,54.597168 L102.041504,54.597168 L102.041504,55 L99.5063477,55 L99.5063477,54.597168 L99.8876953,54.597168 C100.030925,54.597168 100.141032,54.561361 100.218018,54.4897461 C100.295004,54.4181312 100.333496,54.3268235 100.333496,54.2158203 L100.333496,50.9179688 C100.333496,50.7353506 100.286947,50.5992843 100.193848,50.5097656 C100.100748,50.4202469 99.9145522,50.3629559 99.6352539,50.3378906 L99.6352539,49.9672852 Z M111.478516,49.8168945 C112.155277,49.8168945 112.723712,50.0612769 113.183838,50.5500488 C113.643964,51.0388208 113.874023,51.6824504 113.874023,52.480957 C113.874023,53.0323921 113.771079,53.5023581 113.565186,53.8908691 C113.359293,54.2793802 113.065676,54.5864247 112.684326,54.8120117 C112.302977,55.0375988 111.892092,55.1503906 111.45166,55.1503906 C110.799964,55.1503906 110.247642,54.9033228 109.794678,54.4091797 C109.341713,53.9150366 109.115234,53.2740925 109.115234,52.4863281 C109.115234,51.694983 109.342608,51.0522486 109.797363,50.5581055 C110.252118,50.0639624 110.812497,49.8168945 111.478516,49.8168945 Z M111.478516,50.1982422 C111.077472,50.1982422 110.748048,50.3799624 110.490234,50.7434082 C110.232421,51.106854 110.103516,51.6806601 110.103516,52.4648438 C110.103516,53.2633503 110.231525,53.8470034 110.487549,54.2158203 C110.743572,54.5846373 111.073891,54.769043 111.478516,54.769043 C111.897463,54.769043 112.236734,54.5846373 112.496338,54.2158203 C112.755942,53.8470034 112.885742,53.2436565 112.885742,52.4057617 C112.885742,51.6287396 112.757732,51.0665707 112.501709,50.7192383 C112.245686,50.3719058 111.904625,50.1982422 111.478516,50.1982422 Z M116.328613,49.8759766 L116.328613,53.2114258 C116.328613,53.6196309 116.431558,53.934732 116.637451,54.1567383 C116.843344,54.3787446 117.109211,54.4897461 117.435059,54.4897461 C117.836102,54.4897461 118.177163,54.3277197 118.458252,54.0036621 C118.739341,53.6796045 118.879883,53.274091 118.879883,52.7871094 L118.879883,50.9018555 C118.879883,50.7299796 118.818116,50.5965988 118.69458,50.501709 C118.571044,50.4068192 118.333823,50.354004 117.98291,50.3432617 L117.98291,49.9672852 L119.75,49.8759766 L119.75,54.0063477 C119.75,54.1961273 119.80371,54.3420405 119.911133,54.4440918 C120.018555,54.5461431 120.168944,54.597168 120.362305,54.597168 L120.679199,54.597168 L120.679199,54.9570312 L118.987305,55 L118.879883,54.0063477 C118.5791,54.3608416 118.276531,54.6276033 117.972168,54.8066406 C117.667804,54.985678 117.359865,55.0751953 117.04834,55.0751953 C116.593585,55.0751953 116.212241,54.9230158 115.904297,54.6186523 C115.592772,54.3178696 115.437012,53.8076208 115.437012,53.0878906 L115.437012,50.9018555 C115.437012,50.7084951 115.360027,50.5616867 115.206055,50.4614258 C115.098632,50.3898108 114.87842,50.3504232 114.54541,50.3432617 L114.54541,49.9672852 L116.328613,49.8759766 Z M122.64502,47.9155273 L123.010254,47.9155273 L123.010254,49.9672852 L124.637695,49.9672852 L124.637695,50.4614258 L123.010254,50.4614258 L123.010254,53.6894531 C123.010254,53.9687514 123.076497,54.1826978 123.208984,54.3312988 C123.341472,54.4798998 123.509765,54.5541992 123.713867,54.5541992 C123.957358,54.5541992 124.165038,54.4414074 124.336914,54.2158203 C124.50879,53.9902332 124.609049,53.6178411 124.637695,53.0986328 L124.997559,53.0986328 C124.976074,53.7682325 124.823895,54.2650537 124.541016,54.5891113 C124.258137,54.9131689 123.891116,55.0751953 123.439941,55.0751953 C123.024575,55.0751953 122.699627,54.9615083 122.465088,54.7341309 C122.230549,54.5067534 122.113281,54.2086607 122.113281,53.8398438 L122.113281,50.4614258 L121.237793,50.4614258 L121.237793,50.0854492 C121.635256,50.017415 121.937824,49.8509128 122.145508,49.5859375 C122.453452,49.1884746 122.619954,48.6316768 122.64502,47.9155273 Z M125.475586,47.0561523 L127.382324,46.9648438 L127.382324,50.8427734 C127.6473,50.4990217 127.931965,50.242107 128.236328,50.0720215 C128.540692,49.901936 128.862954,49.8168945 129.203125,49.8168945 C129.525392,49.8168945 129.815428,49.8938794 130.073242,50.0478516 C130.273764,50.169597 130.444742,50.3826482 130.586182,50.6870117 C130.727621,50.9913752 130.79834,51.3512349 130.79834,51.7666016 L130.79834,54.1567383 C130.79834,54.3107104 130.837727,54.4226071 130.916504,54.4924316 C130.99528,54.5622562 131.118814,54.597168 131.287109,54.597168 L131.716797,54.597168 L131.716797,55 L128.999023,55 L128.999023,54.597168 L129.299805,54.597168 C129.528973,54.597168 129.687418,54.5604659 129.775146,54.4870605 C129.862875,54.4136552 129.906738,54.3035489 129.906738,54.1567383 L129.906738,51.7666016 C129.906738,51.3476542 129.805584,51.0209159 129.603271,50.786377 C129.400959,50.551838 129.142254,50.4345703 128.827148,50.4345703 C128.580077,50.4345703 128.350913,50.5008131 128.139648,50.6333008 C127.928384,50.7657884 127.74935,50.9672024 127.602539,51.2375488 C127.455728,51.5078952 127.382324,51.7934555 127.382324,52.0942383 L127.382324,54.1030273 C127.382324,54.2820647 127.419921,54.4091793 127.495117,54.484375 C127.570313,54.5595707 127.693847,54.597168 127.865723,54.597168 L128.29541,54.597168 L128.29541,55 L125.636719,55 L125.636719,54.597168 L125.9375,54.597168 C126.141603,54.597168 126.286621,54.5568852 126.372559,54.4763184 C126.458497,54.3957516 126.501465,54.2713225 126.501465,54.1030273 L126.501465,48.0981445 C126.501465,47.8832997 126.445069,47.7230637 126.332275,47.6174316 C126.219482,47.5117996 126.055665,47.4589844 125.84082,47.4589844 L125.475586,47.4589844 L125.475586,47.0561523 Z M135.981445,53.1040039 C136.203452,53.7234731 136.458576,54.1522612 136.746826,54.3903809 C137.035076,54.6285005 137.39046,54.7475586 137.812988,54.7475586 C138.20329,54.7475586 138.503173,54.6625171 138.712646,54.4924316 C138.92212,54.3223462 139.026855,54.1066094 139.026855,53.8452148 C139.026855,53.6948235 138.988363,53.563233 138.911377,53.4504395 C138.834391,53.3376459 138.727865,53.2534996 138.591797,53.197998 C138.455728,53.1424965 138.10303,53.0610357 137.533691,52.9536133 C136.989418,52.8461909 136.609864,52.733399 136.39502,52.6152344 C136.180175,52.4970697 136.012777,52.3341482 135.892822,52.1264648 C135.772867,51.9187815 135.712891,51.6931978 135.712891,51.449707 C135.712891,51.0808901 135.836425,50.7460953 136.083496,50.4453125 C136.402183,50.0621726 136.847979,49.8706055 137.420898,49.8706055 C137.85775,49.8706055 138.262368,50.0084622 138.634766,50.2841797 L138.989258,49.9082031 L139.209473,49.9082031 L139.349121,51.7021484 L138.989258,51.7021484 C138.831705,51.1936824 138.618654,50.8275565 138.350098,50.6037598 C138.081542,50.3799631 137.750327,50.2680664 137.356445,50.2680664 C137.016274,50.2680664 136.749513,50.3513175 136.556152,50.5178223 C136.362792,50.684327 136.266113,50.8875314 136.266113,51.1274414 C136.266113,51.3387055 136.355631,51.5141595 136.534668,51.6538086 C136.710125,51.7970385 137.053871,51.9098303 137.565918,51.9921875 C138.160322,52.0924484 138.547037,52.1765947 138.726074,52.2446289 C139.019695,52.3520513 139.24707,52.5176584 139.408203,52.7414551 C139.569337,52.9652518 139.649902,53.2382796 139.649902,53.5605469 C139.649902,54.0045595 139.475344,54.3805323 139.126221,54.6884766 C138.777098,54.9964208 138.333987,55.1503906 137.796875,55.1503906 C137.299151,55.1503906 136.837242,54.9856787 136.411133,54.65625 L136.019043,55.1074219 L135.734375,55.1074219 L135.626953,53.1040039 L135.981445,53.1040039 Z M141.766113,46.9648438 C141.927247,46.9648438 142.068684,47.0257155 142.19043,47.1474609 C142.312175,47.2692063 142.373047,47.4124341 142.373047,47.5771484 C142.373047,47.7382821 142.313965,47.8779291 142.195801,47.9960938 C142.077636,48.1142584 141.936199,48.1733398 141.771484,48.1733398 C141.60677,48.1733398 141.464437,48.1133632 141.344482,47.9934082 C141.224527,47.8734532 141.164551,47.732911 141.164551,47.5717773 C141.164551,47.4106437 141.225423,47.2692063 141.347168,47.1474609 C141.468913,47.0257155 141.60856,46.9648438 141.766113,46.9648438 Z M140.375,49.9672852 L142.373047,49.9082031 L142.373047,54.2373047 C142.373047,54.3554693 142.401692,54.4396156 142.458984,54.4897461 C142.541342,54.561361 142.645182,54.597168 142.770508,54.597168 L143.339844,54.597168 L143.339844,55 L140.482422,55 L140.482422,54.597168 L141.01416,54.597168 C141.171713,54.597168 141.28719,54.5586755 141.360596,54.4816895 C141.434001,54.4047034 141.470703,54.2928067 141.470703,54.1459961 L141.470703,50.9770508 C141.470703,50.7765289 141.413412,50.6252447 141.298828,50.5231934 C141.184244,50.4211421 141.014161,50.3701172 140.788574,50.3701172 L140.375,50.3701172 L140.375,49.9672852 Z M148.657227,52.5185547 L145.053223,52.5185547 C145.071126,53.2848346 145.214354,53.8255193 145.48291,54.140625 C145.790854,54.495119 146.18294,54.6723633 146.65918,54.6723633 C147.361006,54.6723633 147.924965,54.273116 148.351074,53.4746094 L148.700195,53.625 C148.177406,54.6419322 147.42188,55.1503906 146.433594,55.1503906 C145.760413,55.1503906 145.193769,54.9069035 144.733643,54.4199219 C144.273517,53.9329403 144.043457,53.3098996 144.043457,52.5507812 C144.043457,51.7343709 144.269936,51.0746282 144.7229,50.5715332 C145.175865,50.0684382 145.733558,49.8168945 146.395996,49.8168945 C146.882978,49.8168945 147.303709,49.9422188 147.658203,50.1928711 C148.012697,50.4435234 148.279459,50.8033831 148.458496,51.2724609 C148.583822,51.6018897 148.650065,52.0172501 148.657227,52.5185547 Z M145.053223,52.137207 L147.233887,52.137207 C147.362794,52.137207 147.463053,52.0933435 147.534668,52.0056152 C147.606283,51.9178869 147.64209,51.768393 147.64209,51.5571289 C147.64209,51.1632467 147.519451,50.8284519 147.27417,50.5527344 C147.028889,50.2770169 146.739748,50.1391602 146.406738,50.1391602 C146.034341,50.1391602 145.718344,50.3056624 145.45874,50.6386719 C145.199136,50.9716814 145.063965,51.4711881 145.053223,52.137207 Z M149.436035,49.9672852 L151.106445,49.8652344 C151.17448,50.1803401 151.224609,50.5491515 151.256836,50.9716797 C151.482423,50.6064435 151.748289,50.3325204 152.054443,50.1499023 C152.360597,49.9672842 152.707029,49.8759766 153.09375,49.8759766 C153.426759,49.8759766 153.706054,49.9413242 153.931641,50.0720215 C154.157228,50.2027188 154.338053,50.4095038 154.474121,50.6923828 C154.610189,50.9752618 154.678223,51.2921532 154.678223,51.6430664 L154.678223,54.0922852 C154.678223,54.2749033 154.719401,54.4047034 154.801758,54.4816895 C154.884115,54.5586755 155.021972,54.597168 155.215332,54.597168 L155.569824,54.597168 L155.569824,55 L152.916504,55 L152.916504,54.597168 L153.168945,54.597168 C153.405275,54.597168 153.569987,54.5595707 153.663086,54.484375 C153.756185,54.4091793 153.802734,54.2963875 153.802734,54.1459961 L153.802734,51.9921875 C153.802734,51.5231096 153.731121,51.1757824 153.587891,50.9501953 C153.387369,50.6279281 153.08301,50.4667969 152.674805,50.4667969 C152.27018,50.4667969 151.9327,50.6297184 151.662354,50.9555664 C151.392007,51.2814144 151.256836,51.7057266 151.256836,52.2285156 L151.256836,54.0922852 C151.256836,54.2749033 151.298909,54.4047034 151.383057,54.4816895 C151.467204,54.5586755 151.605956,54.597168 151.799316,54.597168 L152.148438,54.597168 L152.148438,55 L149.484375,55 L149.484375,54.597168 L149.833496,54.597168 C150.008953,54.597168 150.142334,54.561361 150.233643,54.4897461 C150.324952,54.4181312 150.370605,54.3286138 150.370605,54.2211914 L150.370605,50.9716797 C150.370605,50.7568349 150.312419,50.5939133 150.196045,50.4829102 C150.079671,50.371907 149.912273,50.3164062 149.693848,50.3164062 L149.436035,50.3164062 L149.436035,49.9672852 Z M160.000977,53.5068359 L160.350098,53.6088867 C160.070799,54.6365611 159.45492,55.1503906 158.502441,55.1503906 C157.804196,55.1503906 157.233075,54.9194359 156.789062,54.4575195 C156.34505,53.9956032 156.123047,53.3815142 156.123047,52.6152344 C156.123047,51.7272091 156.366534,51.0388208 156.853516,50.5500488 C157.340497,50.0612769 157.913408,49.8168945 158.572266,49.8168945 C159.066409,49.8168945 159.474608,49.9529609 159.796875,50.2250977 C160.119142,50.4972344 160.280273,50.799803 160.280273,51.1328125 C160.280273,51.3333343 160.220297,51.4989414 160.100342,51.6296387 C159.980387,51.7603359 159.838054,51.8256836 159.67334,51.8256836 C159.512206,51.8256836 159.37614,51.7701828 159.265137,51.6591797 C159.154134,51.5481765 159.098633,51.4139005 159.098633,51.2563477 C159.098633,51.0987948 159.159505,50.9484057 159.28125,50.8051758 C159.338542,50.7371416 159.367188,50.6834312 159.367188,50.644043 C159.367188,50.5402013 159.297364,50.4390467 159.157715,50.3405762 C159.018066,50.2421056 158.828289,50.1928711 158.588379,50.1928711 C158.151528,50.1928711 157.820314,50.3522119 157.594727,50.6708984 C157.272459,51.1328148 157.111328,51.7415327 157.111328,52.4970703 C157.111328,53.2168005 157.254556,53.761961 157.541016,54.1325684 C157.827475,54.5031757 158.192706,54.6884766 158.636719,54.6884766 C159.249026,54.6884766 159.703775,54.2946003 160.000977,53.5068359 Z M165.758789,52.5185547 L162.154785,52.5185547 C162.172689,53.2848346 162.315917,53.8255193 162.584473,54.140625 C162.892417,54.495119 163.284503,54.6723633 163.760742,54.6723633 C164.462569,54.6723633 165.026528,54.273116 165.452637,53.4746094 L165.801758,53.625 C165.278969,54.6419322 164.523442,55.1503906 163.535156,55.1503906 C162.861976,55.1503906 162.295331,54.9069035 161.835205,54.4199219 C161.375079,53.9329403 161.14502,53.3098996 161.14502,52.5507812 C161.14502,51.7343709 161.371498,51.0746282 161.824463,50.5715332 C162.277427,50.0684382 162.83512,49.8168945 163.497559,49.8168945 C163.98454,49.8168945 164.405272,49.9422188 164.759766,50.1928711 C165.11426,50.4435234 165.381021,50.8033831 165.560059,51.2724609 C165.685385,51.6018897 165.751628,52.0172501 165.758789,52.5185547 Z M162.154785,52.137207 L164.335449,52.137207 C164.464356,52.137207 164.564616,52.0933435 164.63623,52.0056152 C164.707845,51.9178869 164.743652,51.768393 164.743652,51.5571289 C164.743652,51.1632467 164.621014,50.8284519 164.375732,50.5527344 C164.130451,50.2770169 163.84131,50.1391602 163.508301,50.1391602 C163.135903,50.1391602 162.819907,50.3056624 162.560303,50.6386719 C162.300699,50.9716814 162.165527,51.4711881 162.154785,52.137207 Z M172.966797,47.550293 L172.966797,54.253418 C172.966797,54.3536789 173.002604,54.4306638 173.074219,54.484375 C173.17806,54.5595707 173.305175,54.597168 173.455566,54.597168 L174.497559,54.597168 L174.497559,55 L170.635742,55 L170.635742,54.597168 L171.527344,54.597168 C171.713543,54.597168 171.851399,54.5533045 171.940918,54.4655762 C172.030437,54.3778479 172.075195,54.2605802 172.075195,54.1137695 L172.075195,49.0488281 C172.075195,48.9449865 172.034017,48.8572595 171.95166,48.7856445 C171.869303,48.7140296 171.763673,48.6782227 171.634766,48.6782227 L170.442383,48.6782227 L170.442383,48.3076172 C171.000979,48.2360022 171.453937,48.1402187 171.80127,48.0202637 C172.148602,47.9003086 172.454751,47.7436533 172.719727,47.550293 L172.966797,47.550293 Z M179.503418,50.7836914 C180.076338,50.9913747 180.489908,51.2626123 180.744141,51.5974121 C180.998374,51.932212 181.125488,52.3359351 181.125488,52.8085938 C181.125488,53.385094 180.941083,53.8881814 180.572266,54.3178711 C180.096026,54.8728869 179.417485,55.1503906 178.536621,55.1503906 C177.759599,55.1503906 177.14551,54.9632994 176.694336,54.5891113 C176.243162,54.2149233 176.017578,53.7485379 176.017578,53.1899414 C176.017578,52.770994 176.147378,52.4048681 176.406982,52.0915527 C176.666587,51.7782374 177.115068,51.5123709 177.752441,51.2939453 C176.810705,50.8893209 176.339844,50.2644899 176.339844,49.4194336 C176.339844,48.8715793 176.552,48.3998229 176.976318,48.0041504 C177.400637,47.6084778 177.938636,47.4106445 178.590332,47.4106445 C179.037925,47.4106445 179.427326,47.4876294 179.758545,47.6416016 C180.089764,47.7955737 180.342203,48.0050442 180.515869,48.2700195 C180.689535,48.5349948 180.776367,48.8124985 180.776367,49.1025391 C180.776367,49.7757195 180.352055,50.336098 179.503418,50.7836914 Z M179.089844,50.644043 C179.465822,50.4291981 179.718261,50.2170421 179.847168,50.0075684 C179.976075,49.7980947 180.040527,49.5232764 180.040527,49.1831055 C180.040527,48.7355121 179.913413,48.3899752 179.65918,48.1464844 C179.404947,47.9029936 179.036135,47.78125 178.552734,47.78125 C178.083657,47.78125 177.718426,47.894937 177.457031,48.1223145 C177.195637,48.3496919 177.064941,48.6459943 177.064941,49.0112305 C177.064941,49.3728859 177.178628,49.6611317 177.406006,49.8759766 C177.633383,50.0908214 178.194657,50.346841 179.089844,50.644043 Z M178.155273,51.4443359 C177.646807,51.6591808 177.294109,51.9008776 177.097168,52.1694336 C176.900227,52.4379896 176.801758,52.7674134 176.801758,53.1577148 C176.801758,53.6661809 176.951252,54.0609524 177.250244,54.342041 C177.549237,54.6231297 177.979815,54.7636719 178.541992,54.7636719 C179.136396,54.7636719 179.598306,54.6231297 179.927734,54.342041 C180.257163,54.0609524 180.421875,53.6894554 180.421875,53.2275391 C180.421875,52.8085917 180.279542,52.4917003 179.994873,52.2768555 C179.710204,52.0620106 179.09701,51.7845069 178.155273,51.4443359 Z M185.621094,50.7836914 C186.194013,50.9913747 186.607583,51.2626123 186.861816,51.5974121 C187.116049,51.932212 187.243164,52.3359351 187.243164,52.8085938 C187.243164,53.385094 187.058758,53.8881814 186.689941,54.3178711 C186.213702,54.8728869 185.535161,55.1503906 184.654297,55.1503906 C183.877275,55.1503906 183.263186,54.9632994 182.812012,54.5891113 C182.360838,54.2149233 182.135254,53.7485379 182.135254,53.1899414 C182.135254,52.770994 182.265054,52.4048681 182.524658,52.0915527 C182.784262,51.7782374 183.232744,51.5123709 183.870117,51.2939453 C182.928381,50.8893209 182.45752,50.2644899 182.45752,49.4194336 C182.45752,48.8715793 182.669676,48.3998229 183.093994,48.0041504 C183.518313,47.6084778 184.056312,47.4106445 184.708008,47.4106445 C185.155601,47.4106445 185.545002,47.4876294 185.876221,47.6416016 C186.20744,47.7955737 186.459879,48.0050442 186.633545,48.2700195 C186.807211,48.5349948 186.894043,48.8124985 186.894043,49.1025391 C186.894043,49.7757195 186.469731,50.336098 185.621094,50.7836914 Z M185.20752,50.644043 C185.583498,50.4291981 185.835937,50.2170421 185.964844,50.0075684 C186.093751,49.7980947 186.158203,49.5232764 186.158203,49.1831055 C186.158203,48.7355121 186.031089,48.3899752 185.776855,48.1464844 C185.522622,47.9029936 185.153811,47.78125 184.67041,47.78125 C184.201332,47.78125 183.836102,47.894937 183.574707,48.1223145 C183.313312,48.3496919 183.182617,48.6459943 183.182617,49.0112305 C183.182617,49.3728859 183.296304,49.6611317 183.523682,49.8759766 C183.751059,50.0908214 184.312333,50.346841 185.20752,50.644043 Z M184.272949,51.4443359 C183.764483,51.6591808 183.411785,51.9008776 183.214844,52.1694336 C183.017903,52.4379896 182.919434,52.7674134 182.919434,53.1577148 C182.919434,53.6661809 183.068928,54.0609524 183.36792,54.342041 C183.666912,54.6231297 184.097491,54.7636719 184.659668,54.7636719 C185.254072,54.7636719 185.715981,54.6231297 186.04541,54.342041 C186.374839,54.0609524 186.539551,53.6894554 186.539551,53.2275391 C186.539551,52.8085917 186.397218,52.4917003 186.112549,52.2768555 C185.827879,52.0620106 185.214686,51.7845069 184.272949,51.4443359 Z M191.319824,47.550293 L191.319824,54.253418 C191.319824,54.3536789 191.355631,54.4306638 191.427246,54.484375 C191.531088,54.5595707 191.658202,54.597168 191.808594,54.597168 L192.850586,54.597168 L192.850586,55 L188.98877,55 L188.98877,54.597168 L189.880371,54.597168 C190.06657,54.597168 190.204427,54.5533045 190.293945,54.4655762 C190.383464,54.3778479 190.428223,54.2605802 190.428223,54.1137695 L190.428223,49.0488281 C190.428223,48.9449865 190.387045,48.8572595 190.304688,48.7856445 C190.22233,48.7140296 190.1167,48.6782227 189.987793,48.6782227 L188.79541,48.6782227 L188.79541,48.3076172 C189.354007,48.2360022 189.806964,48.1402187 190.154297,48.0202637 C190.501629,47.9003086 190.807779,47.7436533 191.072754,47.550293 L191.319824,47.550293 Z M197.496582,50.359375 L199.671875,50.359375 L199.671875,51.1757812 L197.496582,51.1757812 L197.496582,50.359375 Z" id="--Satisfying-your-mo" fill="#E79349"></path>
    </g>
</svg>