<?xml version="1.0" encoding="UTF-8"?>
<svg width="724px" height="140px" viewBox="0 0 724 140" version="1.1" xmlns="http://www.w3.org/2000/svg" xmlns:xlink="http://www.w3.org/1999/xlink">
    <!-- Generator: Sketch 41 (35326) - http://www.bohemiancoding.com/sketch -->
    <title>Combined Shape</title>
    <desc>Created with Sketch.</desc>
    <defs></defs>
    <g id="Page-3" stroke="none" stroke-width="1" fill="none" fill-rule="evenodd">
        <path d="M361.716129,0 L5.68434189e-14,0 L5.68434189e-14,52 C5.68434189e-14,52 2.9780813,67.7095536 5.69476846,92.5751447 C7.61144651,110.118325 8.11460781,139.423857 12.9721078,139.423857 C17.3812662,139.423857 17.6384125,117.116079 19.2409147,99.8993883 C21.9062032,71.2645145 24.43564,41.6568699 27.6575546,41.6480418 C33.2659297,41.6326747 26.039073,60.8399602 31.8718188,60.8369914 C35.6905907,60.8350477 31.0648604,41.6541144 34.9800235,41.6480418 C36.8086027,41.6452055 42.2523285,35.6796234 44.1423507,52 C45.2879711,61.8924541 41.4006158,96.7762878 45.2924019,97.9861 C50.7744814,99.6902756 46.3087904,87.1445167 48.8130568,78.8860518 C50.2560886,74.1272819 57.1954961,71.8778397 61.5174905,71.8114423 C62.9691239,71.7891413 70.1429636,73.636789 72.9885881,78.8860518 C75.4973139,83.5138445 73.5684269,91.5419123 76.5583439,92.5751447 C82.9396963,94.7803633 75.6134481,72.9048525 78.5085136,58.0567967 C79.6722191,52.0884462 87.6996944,41.6614642 89.0849214,41.6480418 C91.8461971,41.6212858 102.315465,41.4586971 105.022664,52 C107.727174,62.5308286 102.667224,83.765546 110.230516,83.765546 C117.510823,83.765546 113.994878,62.8379588 115.527882,52 C118.144976,33.4977902 119.940253,20.7854023 122.225643,20.7733865 C125.9976,20.7535547 132.2629,44.4712493 136.07725,44.4664234 C140.783984,44.4604684 145.18024,11.2015259 149.942193,11.2047887 C151.050744,11.2055483 148.558647,49.7765305 159.100918,47.8852609 C168.025361,46.2842277 171.183621,12.5351775 172.545815,12.5394585 C175.623356,12.5491302 173.995304,26.0110347 178.355717,27.1334017 C182.716129,28.2557688 181.031577,12.527939 182.47918,12.5394585 C183.968559,12.5513105 190.182118,42.3064165 192.274071,64.1633536 C193.665478,78.7009147 190.859347,86.2441881 192.274071,91.9658292 C192.710882,93.7324476 196.592662,94.7769316 196.899905,94.7803633 C201.106281,94.8273453 196.178674,77.3750293 196.899905,65.1990838 C197.743476,50.957777 204.146477,41.662357 209.124413,41.6480418 C213.894798,41.6343234 209.207432,52.0044083 214.007621,52 C215.810155,51.9983446 223.24295,11.2063933 225.050305,11.2047887 C229.855636,11.2005225 227.540957,27.1334017 237.638226,27.1334017 C247.735495,27.1334017 243.09309,8.96200058 244.35667,8.97122671 C245.739206,8.9813214 254.346126,21.3160075 258.374766,39.9470858 C260.382348,49.2314655 252.544547,75.1652375 261.810997,78.8860518 C273.963065,83.765546 266.259084,42.9109778 267.290645,37.6420885 C270.343623,22.0484362 274.560246,12.5234341 276.528244,12.5394585 C278.214549,12.5531892 283.803678,23.0341291 283.803678,27.9367815 C283.803678,32.839434 283.999627,41.6480418 291.318505,37.6420885 C293.859059,36.251528 289.595155,31.651899 290.272822,27.9367815 C291.547391,20.9493178 296.194305,13.7923455 297.258919,13.8048417 C299.671845,13.8331643 301.288867,12.8788792 302.718069,15.2233416 C304.287019,17.7970465 305.658856,23.6913929 308.300172,23.7406191 C308.92941,23.7523462 309.219195,17.4067596 312.708265,15.2233416 C318.599822,11.5364762 328.770035,11.1833865 329.831629,11.2047887 C331.745343,11.2433699 337.435775,13.7625559 339.345258,13.8048417 C341.199386,13.8459017 344.186709,20.0128702 346.92274,24.8420766 C348.676327,27.9372269 346.791147,30.5618238 350.186229,30.5618238 C353.581311,30.5618238 350.819749,24.579587 353.581311,20.7733865 C355.612187,17.9742741 359.061029,15.7373897 361.716129,14.3056223 C364.371229,15.7373897 367.820072,17.9742741 369.850948,20.7733865 C372.61251,24.579587 369.850948,30.5618238 373.24603,30.5618238 C376.641112,30.5618238 374.755932,27.9372269 376.509518,24.8420766 C379.24555,20.0128702 382.232873,13.8459017 384.087001,13.8048417 C385.996483,13.7625559 391.686916,11.2433699 393.60063,11.2047887 C394.662224,11.1833865 404.832437,11.5364762 410.723994,15.2233416 C414.213064,17.4067596 414.502849,23.7523462 415.132087,23.7406191 C417.773403,23.6913929 419.14524,17.7970465 420.71419,15.2233416 C422.143391,12.8788792 423.760413,13.8331643 426.17334,13.8048417 C427.237954,13.7923455 431.884868,20.9493178 433.159436,27.9367815 C433.837103,31.651899 429.573199,36.251528 432.113754,37.6420885 C439.432632,41.6480418 439.628581,32.839434 439.628581,27.9367815 C439.628581,23.0341291 445.21771,12.5531892 446.904015,12.5394585 C448.872013,12.5234341 453.088636,22.0484362 456.141614,37.6420885 C457.173175,42.9109778 449.469194,83.765546 461.621262,78.8860518 C470.887712,75.1652375 463.049911,49.2314655 465.057493,39.9470858 C469.086133,21.3160075 477.693053,8.9813214 479.075589,8.97122671 C480.339169,8.96200058 475.696764,27.1334017 485.794033,27.1334017 C495.891301,27.1334017 493.576623,11.2005225 498.381954,11.2047887 C500.189308,11.2063933 507.622104,51.9983446 509.424638,52 C514.224826,52.0044083 509.537461,41.6343234 514.307846,41.6480418 C519.285781,41.662357 525.688783,50.957777 526.532354,65.1990838 C527.253585,77.3750293 522.325978,94.8273453 526.532354,94.7803633 C526.839596,94.7769316 530.721377,93.7324476 531.158188,91.9658292 C532.572912,86.2441881 529.766781,78.7009147 531.158188,64.1633536 C533.250141,42.3064165 539.4637,12.5513105 540.953078,12.5394585 C542.400681,12.527939 540.716129,28.2557688 545.076542,27.1334017 C549.436955,26.0110347 547.808903,12.5491302 550.886444,12.5394585 C552.248638,12.5351775 555.406898,46.2842277 564.33134,47.8852609 C574.873612,49.7765305 572.381514,11.2055483 573.490065,11.2047887 C578.252019,11.2015259 582.648275,44.4604684 587.355008,44.4664234 C591.169359,44.4712493 597.434659,20.7535547 601.206616,20.7733865 C603.492006,20.7854023 605.287283,33.4977902 607.904377,52 C609.43738,62.8379588 605.921436,83.765546 613.201742,83.765546 C620.765035,83.765546 615.705085,62.5308286 618.409595,52 C621.116794,41.4586971 631.586062,41.6212858 634.347337,41.6480418 C635.732564,41.6614642 643.76004,52.0884462 644.923745,58.0567967 C647.818811,72.9048525 640.492563,94.7803633 646.873915,92.5751447 C649.863832,91.5419123 647.934945,83.5138445 650.443671,78.8860518 C653.289295,73.636789 660.463135,71.7891413 661.914768,71.8114423 C666.236763,71.8778397 673.17617,74.1272819 674.619202,78.8860518 C677.123468,87.1445167 672.657777,99.6902756 678.139857,97.9861 C682.031643,96.7762878 678.144288,61.8924541 679.289908,52 C681.17993,35.6796234 686.623656,41.6452055 688.452235,41.6480418 C692.367398,41.6541144 687.741668,60.8350477 691.56044,60.8369914 C697.393186,60.8399602 690.166329,41.6326747 695.774704,41.6480418 C698.996619,41.6568699 701.526056,71.2645145 704.191344,99.8993883 C705.793846,117.116079 706.050993,139.423857 710.460151,139.423857 C715.317651,139.423857 715.820812,110.118325 717.73749,92.5751447 C720.454178,67.7095536 723.432259,52 723.432259,52 L723.432259,0 L361.716129,0 Z" id="Combined-Shape" fill="#5C3818"></path>
    </g>
</svg>