<?xml version="1.0" encoding="UTF-8"?>
<svg width="36px" height="36px" viewBox="0 0 36 36" version="1.1" xmlns="http://www.w3.org/2000/svg" xmlns:xlink="http://www.w3.org/1999/xlink">
    <!-- Generator: Sketch 41 (35326) - http://www.bohemiancoding.com/sketch -->
    <title>Group 5</title>
    <desc>Created with Sketch.</desc>
    <defs></defs>
    <g id="Page-3" stroke="none" stroke-width="1" fill="none" fill-rule="evenodd">
        <g id="Group-5" transform="translate(1.000000, 1.000000)">
            <g id="Candy1" transform="translate(17.000000, 17.000000) scale(-1, 1) translate(-17.000000, -17.000000) ">
                <circle id="Oval" stroke="#BD10E0" stroke-width="0.5" fill="#FFFFFF" cx="17.037694" cy="17.037694" r="16.962306"></circle>
                <path d="M20.6963663,16.2199259 L22.4416208,33.0824401 C22.4416208,33.0824401 21.4384314,33.1730392 20.9337833,33.1730392 C20.2824816,33.1730392 18.9624417,33.1068438 18.9624417,33.1068438 L20.6963663,16.2199259 Z" id="Triangle-2" fill="#BD0FE1" transform="translate(20.702031, 24.696483) rotate(-27.000000) translate(-20.702031, -24.696483) "></path>
                <path d="M16.7361419,16.962306 L18.4959482,33.9223443 C18.4959482,33.9223443 17.4451997,33.9903877 16.9190096,33.9903877 C16.2892499,33.9903877 15.0022173,33.8492239 15.0022173,33.8492239 L16.7361419,16.962306 Z" id="Triangle-2" fill="#BD0FE1"></path>
                <path d="M16.7292085,0.0746272986 L18.479277,16.830875 C18.479277,16.830875 17.2532377,16.9739353 16.6482747,16.9615453 C16.0942178,16.9501978 14.9860734,16.8903325 14.9860734,16.8903325 L16.7292085,0.0746272986 Z" id="Triangle-2" fill="#BD0FE1" transform="translate(16.732675, 8.518467) scale(-1, -1) translate(-16.732675, -8.518467) "></path>
                <path d="M12.198388,15.8284196 L13.9718205,32.4777476 C13.9718205,32.4777476 12.8268921,32.5526037 12.2292888,32.5448706 C11.6741081,32.5376866 10.5134686,32.4329964 10.5134686,32.4329964 L12.198388,15.8284196 Z" id="Triangle-2" fill="#BD0FE1" transform="translate(12.242645, 24.186925) rotate(33.000000) translate(-12.242645, -24.186925) "></path>
                <path d="M20.2979365,0.700907503 L22.040865,17.7554845 C22.040865,17.7554845 20.8179781,17.8863514 20.2329092,17.8860753 C19.643641,17.8857971 18.5178537,17.7538215 18.5178537,17.7538215 L20.2979365,0.700907503 Z" id="Triangle-2" fill="#BD0FE1" transform="translate(20.279359, 9.293492) scale(-1, -1) rotate(23.000000) translate(-20.279359, -9.293492) "></path>
                <path d="M22.7950199,2.3353082 L24.5289446,19.2222262 C24.5289446,19.2222262 23.3296108,19.3185588 22.6945884,19.3185588 C22.1736611,19.3185588 21.0610953,19.2222262 21.0610953,19.2222262 L22.7950199,2.3353082 Z" id="Triangle-2" fill="#BD0FE1" transform="translate(22.795020, 10.826934) scale(-1, -1) rotate(43.000000) translate(-22.795020, -10.826934) "></path>
                <path d="M12.9734721,1.09425548 L14.578518,17.5850409 C14.578518,17.5850409 13.576148,17.6977076 13.0824959,17.7019965 C12.4819521,17.7072141 11.2959303,17.6135605 11.2959303,17.6135605 L12.9734721,1.09425548 Z" id="Triangle-2" fill="#BD0FE1" transform="translate(12.937224, 9.398231) scale(-1, -1) rotate(-27.000000) translate(-12.937224, -9.398231) "></path>
                <path d="M23.4137914,13.8786597 L25.1991938,30.9710199 C25.1991938,30.9710199 24.005189,31.0477528 23.3897138,31.0477528 C22.8191823,31.0477528 21.6347813,30.9067415 21.6347813,30.9067415 L23.4137914,13.8786597 Z" id="Triangle-2" fill="#BD0FE1" transform="translate(23.416988, 22.463206) rotate(-51.000000) translate(-23.416988, -22.463206) "></path>
                <path d="M10.2962321,3.39235198 L11.9911587,20.1645221 C11.9911587,20.1645221 10.9361561,20.2693702 10.4087557,20.2765253 C9.80463537,20.2847211 8.59659637,20.2105747 8.59659637,20.2105747 L10.2962321,3.39235198 Z" id="Triangle-2" fill="#BD0FE1" transform="translate(10.293878, 11.834755) scale(-1, -1) rotate(-51.000000) translate(-10.293878, -11.834755) "></path>
                <path d="M25.3473766,10.4811552 L27.0749522,27.284828 C27.0749522,27.284828 25.6844456,27.3859948 24.981293,27.3639656 C24.5344569,27.3499666 23.631335,27.2599883 23.631335,27.2599883 L25.3473766,10.4811552 Z" id="Triangle-2" fill="#BD0FE1" transform="translate(25.353144, 18.924130) rotate(-78.000000) translate(-25.353144, -18.924130) "></path>
                <path d="M8.5256157,7.10573987 L10.2580441,23.6896755 C10.2580441,23.6896755 8.92154661,23.7899828 8.47810859,23.7937853 C7.79565425,23.7996373 6.88036702,23.7186391 6.88036702,23.7186391 L8.5256157,7.10573987 Z" id="Triangle-2" fill="#BD0FE1" transform="translate(8.569206, 15.449914) scale(-1, -1) rotate(-78.000000) translate(-8.569206, -15.449914) "></path>
                <path d="M25.1305061,5.96747963 L26.8388559,22.822133 C26.8388559,22.822133 25.5075237,22.9103158 24.8510981,22.8995791 C24.3562524,22.8914853 23.4106168,22.7979061 23.4106168,22.7979061 L25.1305061,5.96747963 Z" id="Triangle-2" fill="#BD0FE1" transform="translate(25.124736, 14.433983) rotate(-108.000000) translate(-25.124736, -14.433983) "></path>
                <path d="M8.67934603,11.7373279 L10.3782501,28.0776468 C10.3782501,28.0776468 9.44028123,28.2177063 9.01393865,28.225499 C8.38085972,28.2370705 7.19998554,28.1357395 7.19998554,28.1357395 L8.67934603,11.7373279 Z" id="Triangle-2" fill="#BD0FE1" transform="translate(8.789118, 19.981874) scale(-1, -1) rotate(-108.000000) translate(-8.789118, -19.981874) "></path>
            </g>
        </g>
    </g>
</svg>