<?xml version="1.0" encoding="UTF-8"?>
<svg width="127px" height="230px" viewBox="0 0 127 230" version="1.1" xmlns="http://www.w3.org/2000/svg" xmlns:xlink="http://www.w3.org/1999/xlink">
    <!-- Generator: Sketch 41 (35326) - http://www.bohemiancoding.com/sketch -->
    <title>Platen</title>
    <desc>Created with Sketch.</desc>
    <defs></defs>
    <g id="Page-3" stroke="none" stroke-width="1" fill="none" fill-rule="evenodd">
        <g id="Platen" transform="translate(63.000000, 115.000000) scale(-1, 1) translate(-63.000000, -115.000000) translate(0.000000, -2.000000)">
            <g id="Sjokoladeplate" transform="translate(0.000000, 7.000000)">
                <g id="Group-10">
                    <g id="Group-9">
                        <g id="Group-4" transform="translate(14.750000, 13.250000) rotate(90.000000) translate(-14.750000, -13.250000) translate(1.500000, -1.500000)">
                            <polygon id="Triangle" fill="#523419" points="13.25 14.3318469 26.5 29.5 0 29.5"></polygon>
                            <polygon id="Triangle" fill="#794C24" transform="translate(13.250000, 7.581705) scale(1, -1) translate(-13.250000, -7.581705) " points="13.25 9.06422085e-14 26.5 15.1634091 0 15.1634091"></polygon>
                            <polygon id="Triangle" fill="#523319" transform="translate(20.075758, 14.750000) scale(-1, 1) rotate(90.000000) translate(-20.075758, -14.750000) " points="20.0757576 8.37162162 34.9318182 21.1283784 5.21969697 21.1283784"></polygon>
                            <polygon id="Triangle" fill="#A06632" transform="translate(6.424242, 14.750000) rotate(90.000000) translate(-6.424242, -14.750000) " points="6.42424242 8.37162162 21.280303 21.1283784 -8.43181818 21.1283784"></polygon>
                            <rect id="Rectangle-6" fill="#8B572A" x="2.71022727" y="3.08952703" width="21.0795455" height="23.3209459"></rect>
                        </g>
                    </g>
                    <g id="Group-9" transform="translate(29.500000, 0.000000)">
                        <g id="Group-4" transform="translate(14.750000, 13.250000) rotate(90.000000) translate(-14.750000, -13.250000) translate(1.500000, -1.500000)">
                            <polygon id="Triangle" fill="#523419" points="13.25 14.3318469 26.5 29.5 0 29.5"></polygon>
                            <polygon id="Triangle" fill="#794C24" transform="translate(13.250000, 7.581705) scale(1, -1) translate(-13.250000, -7.581705) " points="13.25 9.06422085e-14 26.5 15.1634091 0 15.1634091"></polygon>
                            <polygon id="Triangle" fill="#523319" transform="translate(20.075758, 14.750000) scale(-1, 1) rotate(90.000000) translate(-20.075758, -14.750000) " points="20.0757576 8.37162162 34.9318182 21.1283784 5.21969697 21.1283784"></polygon>
                            <polygon id="Triangle" fill="#A06632" transform="translate(6.424242, 14.750000) rotate(90.000000) translate(-6.424242, -14.750000) " points="6.42424242 8.37162162 21.280303 21.1283784 -8.43181818 21.1283784"></polygon>
                            <rect id="Rectangle-6" fill="#8B572A" x="2.71022727" y="3.08952703" width="21.0795455" height="23.3209459"></rect>
                        </g>
                    </g>
                    <g id="Group-9" transform="translate(0.000000, 26.500000)">
                        <g id="Group-4" transform="translate(14.750000, 13.250000) rotate(90.000000) translate(-14.750000, -13.250000) translate(1.500000, -1.500000)">
                            <polygon id="Triangle" fill="#523419" points="13.25 14.3318469 26.5 29.5 0 29.5"></polygon>
                            <polygon id="Triangle" fill="#794C24" transform="translate(13.250000, 7.581705) scale(1, -1) translate(-13.250000, -7.581705) " points="13.25 9.06422085e-14 26.5 15.1634091 0 15.1634091"></polygon>
                            <polygon id="Triangle" fill="#523319" transform="translate(20.075758, 14.750000) scale(-1, 1) rotate(90.000000) translate(-20.075758, -14.750000) " points="20.0757576 8.37162162 34.9318182 21.1283784 5.21969697 21.1283784"></polygon>
                            <polygon id="Triangle" fill="#A06632" transform="translate(6.424242, 14.750000) rotate(90.000000) translate(-6.424242, -14.750000) " points="6.42424242 8.37162162 21.280303 21.1283784 -8.43181818 21.1283784"></polygon>
                            <rect id="Rectangle-6" fill="#8B572A" x="2.71022727" y="3.08952703" width="21.0795455" height="23.3209459"></rect>
                        </g>
                    </g>
                    <g id="Group-9" transform="translate(29.500000, 26.500000)">
                        <g id="Group-4" transform="translate(14.750000, 13.250000) rotate(90.000000) translate(-14.750000, -13.250000) translate(1.500000, -1.500000)">
                            <polygon id="Triangle" fill="#523419" points="13.25 14.3318469 26.5 29.5 0 29.5"></polygon>
                            <polygon id="Triangle" fill="#794C24" transform="translate(13.250000, 7.581705) scale(1, -1) translate(-13.250000, -7.581705) " points="13.25 9.06422085e-14 26.5 15.1634091 0 15.1634091"></polygon>
                            <polygon id="Triangle" fill="#523319" transform="translate(20.075758, 14.750000) scale(-1, 1) rotate(90.000000) translate(-20.075758, -14.750000) " points="20.0757576 8.37162162 34.9318182 21.1283784 5.21969697 21.1283784"></polygon>
                            <polygon id="Triangle" fill="#A06632" transform="translate(6.424242, 14.750000) rotate(90.000000) translate(-6.424242, -14.750000) " points="6.42424242 8.37162162 21.280303 21.1283784 -8.43181818 21.1283784"></polygon>
                            <rect id="Rectangle-6" fill="#8B572A" x="2.71022727" y="3.08952703" width="21.0795455" height="23.3209459"></rect>
                        </g>
                    </g>
                    <g id="Group-9" transform="translate(0.000000, 53.000000)">
                        <g id="Group-4" transform="translate(14.750000, 13.250000) rotate(90.000000) translate(-14.750000, -13.250000) translate(1.500000, -1.500000)">
                            <polygon id="Triangle" fill="#523419" points="13.25 14.3318469 26.5 29.5 0 29.5"></polygon>
                            <polygon id="Triangle" fill="#794C24" transform="translate(13.250000, 7.581705) scale(1, -1) translate(-13.250000, -7.581705) " points="13.25 9.06422085e-14 26.5 15.1634091 0 15.1634091"></polygon>
                            <polygon id="Triangle" fill="#523319" transform="translate(20.075758, 14.750000) scale(-1, 1) rotate(90.000000) translate(-20.075758, -14.750000) " points="20.0757576 8.37162162 34.9318182 21.1283784 5.21969697 21.1283784"></polygon>
                            <polygon id="Triangle" fill="#A06632" transform="translate(6.424242, 14.750000) rotate(90.000000) translate(-6.424242, -14.750000) " points="6.42424242 8.37162162 21.280303 21.1283784 -8.43181818 21.1283784"></polygon>
                            <rect id="Rectangle-6" fill="#8B572A" x="2.71022727" y="3.08952703" width="21.0795455" height="23.3209459"></rect>
                        </g>
                    </g>
                    <g id="Group-9" transform="translate(29.500000, 53.000000)">
                        <g id="Group-4" transform="translate(14.750000, 13.250000) rotate(90.000000) translate(-14.750000, -13.250000) translate(1.500000, -1.500000)">
                            <polygon id="Triangle" fill="#523419" points="13.25 14.3318469 26.5 29.5 0 29.5"></polygon>
                            <polygon id="Triangle" fill="#794C24" transform="translate(13.250000, 7.581705) scale(1, -1) translate(-13.250000, -7.581705) " points="13.25 9.06422085e-14 26.5 15.1634091 0 15.1634091"></polygon>
                            <polygon id="Triangle" fill="#523319" transform="translate(20.075758, 14.750000) scale(-1, 1) rotate(90.000000) translate(-20.075758, -14.750000) " points="20.0757576 8.37162162 34.9318182 21.1283784 5.21969697 21.1283784"></polygon>
                            <polygon id="Triangle" fill="#A06632" transform="translate(6.424242, 14.750000) rotate(90.000000) translate(-6.424242, -14.750000) " points="6.42424242 8.37162162 21.280303 21.1283784 -8.43181818 21.1283784"></polygon>
                            <rect id="Rectangle-6" fill="#8B572A" x="2.71022727" y="3.08952703" width="21.0795455" height="23.3209459"></rect>
                        </g>
                    </g>
                    <g id="Group-9" transform="translate(0.000000, 79.500000)">
                        <g id="Group-4" transform="translate(14.750000, 13.250000) rotate(90.000000) translate(-14.750000, -13.250000) translate(1.500000, -1.500000)">
                            <polygon id="Triangle" fill="#523419" points="13.25 14.3318469 26.5 29.5 0 29.5"></polygon>
                            <polygon id="Triangle" fill="#794C24" transform="translate(13.250000, 7.581705) scale(1, -1) translate(-13.250000, -7.581705) " points="13.25 9.06422085e-14 26.5 15.1634091 0 15.1634091"></polygon>
                            <polygon id="Triangle" fill="#523319" transform="translate(20.075758, 14.750000) scale(-1, 1) rotate(90.000000) translate(-20.075758, -14.750000) " points="20.0757576 8.37162162 34.9318182 21.1283784 5.21969697 21.1283784"></polygon>
                            <polygon id="Triangle" fill="#A06632" transform="translate(6.424242, 14.750000) rotate(90.000000) translate(-6.424242, -14.750000) " points="6.42424242 8.37162162 21.280303 21.1283784 -8.43181818 21.1283784"></polygon>
                            <rect id="Rectangle-6" fill="#8B572A" x="2.71022727" y="3.08952703" width="21.0795455" height="23.3209459"></rect>
                        </g>
                    </g>
                    <g id="Group-9" transform="translate(29.500000, 79.500000)">
                        <g id="Group-4" transform="translate(14.750000, 13.250000) rotate(90.000000) translate(-14.750000, -13.250000) translate(1.500000, -1.500000)">
                            <polygon id="Triangle" fill="#523419" points="13.25 14.3318469 26.5 29.5 0 29.5"></polygon>
                            <polygon id="Triangle" fill="#794C24" transform="translate(13.250000, 7.581705) scale(1, -1) translate(-13.250000, -7.581705) " points="13.25 9.06422085e-14 26.5 15.1634091 0 15.1634091"></polygon>
                            <polygon id="Triangle" fill="#523319" transform="translate(20.075758, 14.750000) scale(-1, 1) rotate(90.000000) translate(-20.075758, -14.750000) " points="20.0757576 8.37162162 34.9318182 21.1283784 5.21969697 21.1283784"></polygon>
                            <polygon id="Triangle" fill="#A06632" transform="translate(6.424242, 14.750000) rotate(90.000000) translate(-6.424242, -14.750000) " points="6.42424242 8.37162162 21.280303 21.1283784 -8.43181818 21.1283784"></polygon>
                            <rect id="Rectangle-6" fill="#8B572A" x="2.71022727" y="3.08952703" width="21.0795455" height="23.3209459"></rect>
                        </g>
                    </g>
                </g>
                <g id="Group-10" transform="translate(0.000000, 106.000000)">
                    <g id="Group-9">
                        <g id="Group-4" transform="translate(14.750000, 13.250000) rotate(90.000000) translate(-14.750000, -13.250000) translate(1.500000, -1.500000)">
                            <polygon id="Triangle" fill="#523419" points="13.25 14.3318469 26.5 29.5 0 29.5"></polygon>
                            <polygon id="Triangle" fill="#794C24" transform="translate(13.250000, 7.581705) scale(1, -1) translate(-13.250000, -7.581705) " points="13.25 9.06422085e-14 26.5 15.1634091 0 15.1634091"></polygon>
                            <polygon id="Triangle" fill="#523319" transform="translate(20.075758, 14.750000) scale(-1, 1) rotate(90.000000) translate(-20.075758, -14.750000) " points="20.0757576 8.37162162 34.9318182 21.1283784 5.21969697 21.1283784"></polygon>
                            <polygon id="Triangle" fill="#A06632" transform="translate(6.424242, 14.750000) rotate(90.000000) translate(-6.424242, -14.750000) " points="6.42424242 8.37162162 21.280303 21.1283784 -8.43181818 21.1283784"></polygon>
                            <rect id="Rectangle-6" fill="#8B572A" x="2.71022727" y="3.08952703" width="21.0795455" height="23.3209459"></rect>
                        </g>
                    </g>
                    <g id="Group-9" transform="translate(29.500000, 0.000000)">
                        <g id="Group-4" transform="translate(14.750000, 13.250000) rotate(90.000000) translate(-14.750000, -13.250000) translate(1.500000, -1.500000)">
                            <polygon id="Triangle" fill="#523419" points="13.25 14.3318469 26.5 29.5 0 29.5"></polygon>
                            <polygon id="Triangle" fill="#794C24" transform="translate(13.250000, 7.581705) scale(1, -1) translate(-13.250000, -7.581705) " points="13.25 9.06422085e-14 26.5 15.1634091 0 15.1634091"></polygon>
                            <polygon id="Triangle" fill="#523319" transform="translate(20.075758, 14.750000) scale(-1, 1) rotate(90.000000) translate(-20.075758, -14.750000) " points="20.0757576 8.37162162 34.9318182 21.1283784 5.21969697 21.1283784"></polygon>
                            <polygon id="Triangle" fill="#A06632" transform="translate(6.424242, 14.750000) rotate(90.000000) translate(-6.424242, -14.750000) " points="6.42424242 8.37162162 21.280303 21.1283784 -8.43181818 21.1283784"></polygon>
                            <rect id="Rectangle-6" fill="#8B572A" x="2.71022727" y="3.08952703" width="21.0795455" height="23.3209459"></rect>
                        </g>
                    </g>
                    <g id="Group-9" transform="translate(0.000000, 26.500000)">
                        <g id="Group-4" transform="translate(14.750000, 13.250000) rotate(90.000000) translate(-14.750000, -13.250000) translate(1.500000, -1.500000)">
                            <polygon id="Triangle" fill="#523419" points="13.25 14.3318469 26.5 29.5 0 29.5"></polygon>
                            <polygon id="Triangle" fill="#794C24" transform="translate(13.250000, 7.581705) scale(1, -1) translate(-13.250000, -7.581705) " points="13.25 9.06422085e-14 26.5 15.1634091 0 15.1634091"></polygon>
                            <polygon id="Triangle" fill="#523319" transform="translate(20.075758, 14.750000) scale(-1, 1) rotate(90.000000) translate(-20.075758, -14.750000) " points="20.0757576 8.37162162 34.9318182 21.1283784 5.21969697 21.1283784"></polygon>
                            <polygon id="Triangle" fill="#A06632" transform="translate(6.424242, 14.750000) rotate(90.000000) translate(-6.424242, -14.750000) " points="6.42424242 8.37162162 21.280303 21.1283784 -8.43181818 21.1283784"></polygon>
                            <rect id="Rectangle-6" fill="#8B572A" x="2.71022727" y="3.08952703" width="21.0795455" height="23.3209459"></rect>
                        </g>
                    </g>
                    <g id="Group-9" transform="translate(29.500000, 26.500000)">
                        <g id="Group-4" transform="translate(14.750000, 13.250000) rotate(90.000000) translate(-14.750000, -13.250000) translate(1.500000, -1.500000)">
                            <polygon id="Triangle" fill="#523419" points="13.25 14.3318469 26.5 29.5 0 29.5"></polygon>
                            <polygon id="Triangle" fill="#794C24" transform="translate(13.250000, 7.581705) scale(1, -1) translate(-13.250000, -7.581705) " points="13.25 9.06422085e-14 26.5 15.1634091 0 15.1634091"></polygon>
                            <polygon id="Triangle" fill="#523319" transform="translate(20.075758, 14.750000) scale(-1, 1) rotate(90.000000) translate(-20.075758, -14.750000) " points="20.0757576 8.37162162 34.9318182 21.1283784 5.21969697 21.1283784"></polygon>
                            <polygon id="Triangle" fill="#A06632" transform="translate(6.424242, 14.750000) rotate(90.000000) translate(-6.424242, -14.750000) " points="6.42424242 8.37162162 21.280303 21.1283784 -8.43181818 21.1283784"></polygon>
                            <rect id="Rectangle-6" fill="#8B572A" x="2.71022727" y="3.08952703" width="21.0795455" height="23.3209459"></rect>
                        </g>
                    </g>
                    <g id="Group-9" transform="translate(0.000000, 53.000000)">
                        <g id="Group-4" transform="translate(14.750000, 13.250000) rotate(90.000000) translate(-14.750000, -13.250000) translate(1.500000, -1.500000)">
                            <polygon id="Triangle" fill="#523419" points="13.25 14.3318469 26.5 29.5 0 29.5"></polygon>
                            <polygon id="Triangle" fill="#794C24" transform="translate(13.250000, 7.581705) scale(1, -1) translate(-13.250000, -7.581705) " points="13.25 9.06422085e-14 26.5 15.1634091 0 15.1634091"></polygon>
                            <polygon id="Triangle" fill="#523319" transform="translate(20.075758, 14.750000) scale(-1, 1) rotate(90.000000) translate(-20.075758, -14.750000) " points="20.0757576 8.37162162 34.9318182 21.1283784 5.21969697 21.1283784"></polygon>
                            <polygon id="Triangle" fill="#A06632" transform="translate(6.424242, 14.750000) rotate(90.000000) translate(-6.424242, -14.750000) " points="6.42424242 8.37162162 21.280303 21.1283784 -8.43181818 21.1283784"></polygon>
                            <rect id="Rectangle-6" fill="#8B572A" x="2.71022727" y="3.08952703" width="21.0795455" height="23.3209459"></rect>
                        </g>
                    </g>
                    <g id="Group-9" transform="translate(29.500000, 53.000000)">
                        <g id="Group-4" transform="translate(14.750000, 13.250000) rotate(90.000000) translate(-14.750000, -13.250000) translate(1.500000, -1.500000)">
                            <polygon id="Triangle" fill="#523419" points="13.25 14.3318469 26.5 29.5 0 29.5"></polygon>
                            <polygon id="Triangle" fill="#794C24" transform="translate(13.250000, 7.581705) scale(1, -1) translate(-13.250000, -7.581705) " points="13.25 9.06422085e-14 26.5 15.1634091 0 15.1634091"></polygon>
                            <polygon id="Triangle" fill="#523319" transform="translate(20.075758, 14.750000) scale(-1, 1) rotate(90.000000) translate(-20.075758, -14.750000) " points="20.0757576 8.37162162 34.9318182 21.1283784 5.21969697 21.1283784"></polygon>
                            <polygon id="Triangle" fill="#A06632" transform="translate(6.424242, 14.750000) rotate(90.000000) translate(-6.424242, -14.750000) " points="6.42424242 8.37162162 21.280303 21.1283784 -8.43181818 21.1283784"></polygon>
                            <rect id="Rectangle-6" fill="#8B572A" x="2.71022727" y="3.08952703" width="21.0795455" height="23.3209459"></rect>
                        </g>
                    </g>
                    <g id="Group-9" transform="translate(0.000000, 79.500000)">
                        <g id="Group-4" transform="translate(14.750000, 13.250000) rotate(90.000000) translate(-14.750000, -13.250000) translate(1.500000, -1.500000)">
                            <polygon id="Triangle" fill="#523419" points="13.25 14.3318469 26.5 29.5 0 29.5"></polygon>
                            <polygon id="Triangle" fill="#794C24" transform="translate(13.250000, 7.581705) scale(1, -1) translate(-13.250000, -7.581705) " points="13.25 9.06422085e-14 26.5 15.1634091 0 15.1634091"></polygon>
                            <polygon id="Triangle" fill="#523319" transform="translate(20.075758, 14.750000) scale(-1, 1) rotate(90.000000) translate(-20.075758, -14.750000) " points="20.0757576 8.37162162 34.9318182 21.1283784 5.21969697 21.1283784"></polygon>
                            <polygon id="Triangle" fill="#A06632" transform="translate(6.424242, 14.750000) rotate(90.000000) translate(-6.424242, -14.750000) " points="6.42424242 8.37162162 21.280303 21.1283784 -8.43181818 21.1283784"></polygon>
                            <rect id="Rectangle-6" fill="#8B572A" x="2.71022727" y="3.08952703" width="21.0795455" height="23.3209459"></rect>
                        </g>
                    </g>
                    <g id="Group-9" transform="translate(29.500000, 79.500000)">
                        <g id="Group-4" transform="translate(14.750000, 13.250000) rotate(90.000000) translate(-14.750000, -13.250000) translate(1.500000, -1.500000)">
                            <polygon id="Triangle" fill="#523419" points="13.25 14.3318469 26.5 29.5 0 29.5"></polygon>
                            <polygon id="Triangle" fill="#794C24" transform="translate(13.250000, 7.581705) scale(1, -1) translate(-13.250000, -7.581705) " points="13.25 9.06422085e-14 26.5 15.1634091 0 15.1634091"></polygon>
                            <polygon id="Triangle" fill="#523319" transform="translate(20.075758, 14.750000) scale(-1, 1) rotate(90.000000) translate(-20.075758, -14.750000) " points="20.0757576 8.37162162 34.9318182 21.1283784 5.21969697 21.1283784"></polygon>
                            <polygon id="Triangle" fill="#A06632" transform="translate(6.424242, 14.750000) rotate(90.000000) translate(-6.424242, -14.750000) " points="6.42424242 8.37162162 21.280303 21.1283784 -8.43181818 21.1283784"></polygon>
                            <rect id="Rectangle-6" fill="#8B572A" x="2.71022727" y="3.08952703" width="21.0795455" height="23.3209459"></rect>
                        </g>
                    </g>
                </g>
                <g id="Group-10" transform="translate(59.000000, 106.000000)">
                    <g id="Group-9">
                        <g id="Group-4" transform="translate(14.750000, 13.250000) rotate(90.000000) translate(-14.750000, -13.250000) translate(1.500000, -1.500000)">
                            <polygon id="Triangle" fill="#523419" points="13.25 14.3318469 26.5 29.5 0 29.5"></polygon>
                            <polygon id="Triangle" fill="#794C24" transform="translate(13.250000, 7.581705) scale(1, -1) translate(-13.250000, -7.581705) " points="13.25 9.06422085e-14 26.5 15.1634091 0 15.1634091"></polygon>
                            <polygon id="Triangle" fill="#523319" transform="translate(20.075758, 14.750000) scale(-1, 1) rotate(90.000000) translate(-20.075758, -14.750000) " points="20.0757576 8.37162162 34.9318182 21.1283784 5.21969697 21.1283784"></polygon>
                            <polygon id="Triangle" fill="#A06632" transform="translate(6.424242, 14.750000) rotate(90.000000) translate(-6.424242, -14.750000) " points="6.42424242 8.37162162 21.280303 21.1283784 -8.43181818 21.1283784"></polygon>
                            <rect id="Rectangle-6" fill="#8B572A" x="2.71022727" y="3.08952703" width="21.0795455" height="23.3209459"></rect>
                        </g>
                    </g>
                    <g id="Group-9" transform="translate(29.500000, 0.000000)">
                        <g id="Group-4" transform="translate(14.750000, 13.250000) rotate(90.000000) translate(-14.750000, -13.250000) translate(1.500000, -1.500000)">
                            <polygon id="Triangle" fill="#523419" points="13.25 14.3318469 26.5 29.5 0 29.5"></polygon>
                            <polygon id="Triangle" fill="#794C24" transform="translate(13.250000, 7.581705) scale(1, -1) translate(-13.250000, -7.581705) " points="13.25 9.06422085e-14 26.5 15.1634091 0 15.1634091"></polygon>
                            <polygon id="Triangle" fill="#523319" transform="translate(20.075758, 14.750000) scale(-1, 1) rotate(90.000000) translate(-20.075758, -14.750000) " points="20.0757576 8.37162162 34.9318182 21.1283784 5.21969697 21.1283784"></polygon>
                            <polygon id="Triangle" fill="#A06632" transform="translate(6.424242, 14.750000) rotate(90.000000) translate(-6.424242, -14.750000) " points="6.42424242 8.37162162 21.280303 21.1283784 -8.43181818 21.1283784"></polygon>
                            <rect id="Rectangle-6" fill="#8B572A" x="2.71022727" y="3.08952703" width="21.0795455" height="23.3209459"></rect>
                        </g>
                    </g>
                    <g id="Group-9" transform="translate(0.000000, 26.500000)">
                        <g id="Group-4" transform="translate(14.750000, 13.250000) rotate(90.000000) translate(-14.750000, -13.250000) translate(1.500000, -1.500000)">
                            <polygon id="Triangle" fill="#523419" points="13.25 14.3318469 26.5 29.5 0 29.5"></polygon>
                            <polygon id="Triangle" fill="#794C24" transform="translate(13.250000, 7.581705) scale(1, -1) translate(-13.250000, -7.581705) " points="13.25 9.06422085e-14 26.5 15.1634091 0 15.1634091"></polygon>
                            <polygon id="Triangle" fill="#523319" transform="translate(20.075758, 14.750000) scale(-1, 1) rotate(90.000000) translate(-20.075758, -14.750000) " points="20.0757576 8.37162162 34.9318182 21.1283784 5.21969697 21.1283784"></polygon>
                            <polygon id="Triangle" fill="#A06632" transform="translate(6.424242, 14.750000) rotate(90.000000) translate(-6.424242, -14.750000) " points="6.42424242 8.37162162 21.280303 21.1283784 -8.43181818 21.1283784"></polygon>
                            <rect id="Rectangle-6" fill="#8B572A" x="2.71022727" y="3.08952703" width="21.0795455" height="23.3209459"></rect>
                        </g>
                    </g>
                    <g id="Group-9" transform="translate(29.500000, 26.500000)">
                        <g id="Group-4" transform="translate(14.750000, 13.250000) rotate(90.000000) translate(-14.750000, -13.250000) translate(1.500000, -1.500000)">
                            <polygon id="Triangle" fill="#523419" points="13.25 14.3318469 26.5 29.5 0 29.5"></polygon>
                            <polygon id="Triangle" fill="#794C24" transform="translate(13.250000, 7.581705) scale(1, -1) translate(-13.250000, -7.581705) " points="13.25 9.06422085e-14 26.5 15.1634091 0 15.1634091"></polygon>
                            <polygon id="Triangle" fill="#523319" transform="translate(20.075758, 14.750000) scale(-1, 1) rotate(90.000000) translate(-20.075758, -14.750000) " points="20.0757576 8.37162162 34.9318182 21.1283784 5.21969697 21.1283784"></polygon>
                            <polygon id="Triangle" fill="#A06632" transform="translate(6.424242, 14.750000) rotate(90.000000) translate(-6.424242, -14.750000) " points="6.42424242 8.37162162 21.280303 21.1283784 -8.43181818 21.1283784"></polygon>
                            <rect id="Rectangle-6" fill="#8B572A" x="2.71022727" y="3.08952703" width="21.0795455" height="23.3209459"></rect>
                        </g>
                    </g>
                    <g id="Group-9" transform="translate(0.000000, 53.000000)">
                        <g id="Group-4" transform="translate(14.750000, 13.250000) rotate(90.000000) translate(-14.750000, -13.250000) translate(1.500000, -1.500000)">
                            <polygon id="Triangle" fill="#523419" points="13.25 14.3318469 26.5 29.5 0 29.5"></polygon>
                            <polygon id="Triangle" fill="#794C24" transform="translate(13.250000, 7.581705) scale(1, -1) translate(-13.250000, -7.581705) " points="13.25 9.06422085e-14 26.5 15.1634091 0 15.1634091"></polygon>
                            <polygon id="Triangle" fill="#523319" transform="translate(20.075758, 14.750000) scale(-1, 1) rotate(90.000000) translate(-20.075758, -14.750000) " points="20.0757576 8.37162162 34.9318182 21.1283784 5.21969697 21.1283784"></polygon>
                            <polygon id="Triangle" fill="#A06632" transform="translate(6.424242, 14.750000) rotate(90.000000) translate(-6.424242, -14.750000) " points="6.42424242 8.37162162 21.280303 21.1283784 -8.43181818 21.1283784"></polygon>
                            <rect id="Rectangle-6" fill="#8B572A" x="2.71022727" y="3.08952703" width="21.0795455" height="23.3209459"></rect>
                        </g>
                    </g>
                    <g id="Group-9" transform="translate(29.500000, 53.000000)">
                        <g id="Group-4" transform="translate(14.750000, 13.250000) rotate(90.000000) translate(-14.750000, -13.250000) translate(1.500000, -1.500000)">
                            <polygon id="Triangle" fill="#523419" points="13.25 14.3318469 26.5 29.5 0 29.5"></polygon>
                            <polygon id="Triangle" fill="#794C24" transform="translate(13.250000, 7.581705) scale(1, -1) translate(-13.250000, -7.581705) " points="13.25 9.06422085e-14 26.5 15.1634091 0 15.1634091"></polygon>
                            <polygon id="Triangle" fill="#523319" transform="translate(20.075758, 14.750000) scale(-1, 1) rotate(90.000000) translate(-20.075758, -14.750000) " points="20.0757576 8.37162162 34.9318182 21.1283784 5.21969697 21.1283784"></polygon>
                            <polygon id="Triangle" fill="#A06632" transform="translate(6.424242, 14.750000) rotate(90.000000) translate(-6.424242, -14.750000) " points="6.42424242 8.37162162 21.280303 21.1283784 -8.43181818 21.1283784"></polygon>
                            <rect id="Rectangle-6" fill="#8B572A" x="2.71022727" y="3.08952703" width="21.0795455" height="23.3209459"></rect>
                        </g>
                    </g>
                    <g id="Group-9" transform="translate(0.000000, 79.500000)">
                        <g id="Group-4" transform="translate(14.750000, 13.250000) rotate(90.000000) translate(-14.750000, -13.250000) translate(1.500000, -1.500000)">
                            <polygon id="Triangle" fill="#523419" points="13.25 14.3318469 26.5 29.5 0 29.5"></polygon>
                            <polygon id="Triangle" fill="#794C24" transform="translate(13.250000, 7.581705) scale(1, -1) translate(-13.250000, -7.581705) " points="13.25 9.06422085e-14 26.5 15.1634091 0 15.1634091"></polygon>
                            <polygon id="Triangle" fill="#523319" transform="translate(20.075758, 14.750000) scale(-1, 1) rotate(90.000000) translate(-20.075758, -14.750000) " points="20.0757576 8.37162162 34.9318182 21.1283784 5.21969697 21.1283784"></polygon>
                            <polygon id="Triangle" fill="#A06632" transform="translate(6.424242, 14.750000) rotate(90.000000) translate(-6.424242, -14.750000) " points="6.42424242 8.37162162 21.280303 21.1283784 -8.43181818 21.1283784"></polygon>
                            <rect id="Rectangle-6" fill="#8B572A" x="2.71022727" y="3.08952703" width="21.0795455" height="23.3209459"></rect>
                        </g>
                    </g>
                    <g id="Group-9" transform="translate(29.500000, 79.500000)">
                        <g id="Group-4" transform="translate(14.750000, 13.250000) rotate(90.000000) translate(-14.750000, -13.250000) translate(1.500000, -1.500000)">
                            <polygon id="Triangle" fill="#523419" points="13.25 14.3318469 26.5 29.5 0 29.5"></polygon>
                            <polygon id="Triangle" fill="#794C24" transform="translate(13.250000, 7.581705) scale(1, -1) translate(-13.250000, -7.581705) " points="13.25 9.06422085e-14 26.5 15.1634091 0 15.1634091"></polygon>
                            <polygon id="Triangle" fill="#523319" transform="translate(20.075758, 14.750000) scale(-1, 1) rotate(90.000000) translate(-20.075758, -14.750000) " points="20.0757576 8.37162162 34.9318182 21.1283784 5.21969697 21.1283784"></polygon>
                            <polygon id="Triangle" fill="#A06632" transform="translate(6.424242, 14.750000) rotate(90.000000) translate(-6.424242, -14.750000) " points="6.42424242 8.37162162 21.280303 21.1283784 -8.43181818 21.1283784"></polygon>
                            <rect id="Rectangle-6" fill="#8B572A" x="2.71022727" y="3.08952703" width="21.0795455" height="23.3209459"></rect>
                        </g>
                    </g>
                </g>
                <g id="Group-10" transform="translate(59.000000, 0.000000)">
                    <g id="Group-9">
                        <g id="Group-4" transform="translate(14.750000, 13.250000) rotate(90.000000) translate(-14.750000, -13.250000) translate(1.500000, -1.500000)">
                            <polygon id="Triangle" fill="#523419" points="13.25 14.3318469 26.5 29.5 0 29.5"></polygon>
                            <polygon id="Triangle" fill="#794C24" transform="translate(13.250000, 7.581705) scale(1, -1) translate(-13.250000, -7.581705) " points="13.25 9.06422085e-14 26.5 15.1634091 0 15.1634091"></polygon>
                            <polygon id="Triangle" fill="#523319" transform="translate(20.075758, 14.750000) scale(-1, 1) rotate(90.000000) translate(-20.075758, -14.750000) " points="20.0757576 8.37162162 34.9318182 21.1283784 5.21969697 21.1283784"></polygon>
                            <polygon id="Triangle" fill="#A06632" transform="translate(6.424242, 14.750000) rotate(90.000000) translate(-6.424242, -14.750000) " points="6.42424242 8.37162162 21.280303 21.1283784 -8.43181818 21.1283784"></polygon>
                            <rect id="Rectangle-6" fill="#8B572A" x="2.71022727" y="3.08952703" width="21.0795455" height="23.3209459"></rect>
                        </g>
                    </g>
                    <g id="Group-9" transform="translate(0.000000, 26.500000)">
                        <g id="Group-4" transform="translate(14.750000, 13.250000) rotate(90.000000) translate(-14.750000, -13.250000) translate(1.500000, -1.500000)">
                            <polygon id="Triangle" fill="#523419" points="13.25 14.3318469 26.5 29.5 0 29.5"></polygon>
                            <polygon id="Triangle" fill="#794C24" transform="translate(13.250000, 7.581705) scale(1, -1) translate(-13.250000, -7.581705) " points="13.25 9.06422085e-14 26.5 15.1634091 0 15.1634091"></polygon>
                            <polygon id="Triangle" fill="#523319" transform="translate(20.075758, 14.750000) scale(-1, 1) rotate(90.000000) translate(-20.075758, -14.750000) " points="20.0757576 8.37162162 34.9318182 21.1283784 5.21969697 21.1283784"></polygon>
                            <polygon id="Triangle" fill="#A06632" transform="translate(6.424242, 14.750000) rotate(90.000000) translate(-6.424242, -14.750000) " points="6.42424242 8.37162162 21.280303 21.1283784 -8.43181818 21.1283784"></polygon>
                            <rect id="Rectangle-6" fill="#8B572A" x="2.71022727" y="3.08952703" width="21.0795455" height="23.3209459"></rect>
                        </g>
                    </g>
                    <g id="Group-9" transform="translate(29.500000, 26.500000)">
                        <g id="Group-4" transform="translate(14.750000, 13.250000) rotate(90.000000) translate(-14.750000, -13.250000) translate(1.500000, -1.500000)">
                            <polygon id="Triangle" fill="#523419" points="13.25 14.3318469 26.5 29.5 0 29.5"></polygon>
                            <polygon id="Triangle" fill="#794C24" transform="translate(13.250000, 7.581705) scale(1, -1) translate(-13.250000, -7.581705) " points="13.25 9.06422085e-14 26.5 15.1634091 0 15.1634091"></polygon>
                            <polygon id="Triangle" fill="#523319" transform="translate(20.075758, 14.750000) scale(-1, 1) rotate(90.000000) translate(-20.075758, -14.750000) " points="20.0757576 8.37162162 34.9318182 21.1283784 5.21969697 21.1283784"></polygon>
                            <polygon id="Triangle" fill="#A06632" transform="translate(6.424242, 14.750000) rotate(90.000000) translate(-6.424242, -14.750000) " points="6.42424242 8.37162162 21.280303 21.1283784 -8.43181818 21.1283784"></polygon>
                            <rect id="Rectangle-6" fill="#8B572A" x="2.71022727" y="3.08952703" width="21.0795455" height="23.3209459"></rect>
                        </g>
                    </g>
                    <g id="Group-9" transform="translate(30.000000, 0.000000)">
                        <g id="Group-4" transform="translate(14.750000, 13.250000) rotate(90.000000) translate(-14.750000, -13.250000) translate(1.500000, -1.500000)">
                            <polygon id="Triangle" fill="#523419" points="13.25 14.3318469 26.5 29.5 0 29.5"></polygon>
                            <polygon id="Triangle" fill="#794C24" transform="translate(13.250000, 7.581705) scale(1, -1) translate(-13.250000, -7.581705) " points="13.25 9.06422085e-14 26.5 15.1634091 0 15.1634091"></polygon>
                            <polygon id="Triangle" fill="#523319" transform="translate(20.075758, 14.750000) scale(-1, 1) rotate(90.000000) translate(-20.075758, -14.750000) " points="20.0757576 8.37162162 34.9318182 21.1283784 5.21969697 21.1283784"></polygon>
                            <polygon id="Triangle" fill="#A06632" transform="translate(6.424242, 14.750000) rotate(90.000000) translate(-6.424242, -14.750000) " points="6.42424242 8.37162162 21.280303 21.1283784 -8.43181818 21.1283784"></polygon>
                            <rect id="Rectangle-6" fill="#8B572A" x="2.71022727" y="3.08952703" width="21.0795455" height="23.3209459"></rect>
                        </g>
                    </g>
                    <g id="Group-9" transform="translate(0.000000, 53.000000)">
                        <g id="Group-4" transform="translate(14.750000, 13.250000) rotate(90.000000) translate(-14.750000, -13.250000) translate(1.500000, -1.500000)">
                            <polygon id="Triangle" fill="#523419" points="13.25 14.3318469 26.5 29.5 0 29.5"></polygon>
                            <polygon id="Triangle" fill="#794C24" transform="translate(13.250000, 7.581705) scale(1, -1) translate(-13.250000, -7.581705) " points="13.25 9.06422085e-14 26.5 15.1634091 0 15.1634091"></polygon>
                            <polygon id="Triangle" fill="#523319" transform="translate(20.075758, 14.750000) scale(-1, 1) rotate(90.000000) translate(-20.075758, -14.750000) " points="20.0757576 8.37162162 34.9318182 21.1283784 5.21969697 21.1283784"></polygon>
                            <polygon id="Triangle" fill="#A06632" transform="translate(6.424242, 14.750000) rotate(90.000000) translate(-6.424242, -14.750000) " points="6.42424242 8.37162162 21.280303 21.1283784 -8.43181818 21.1283784"></polygon>
                            <rect id="Rectangle-6" fill="#8B572A" x="2.71022727" y="3.08952703" width="21.0795455" height="23.3209459"></rect>
                        </g>
                    </g>
                    <g id="Group-9" transform="translate(29.500000, 53.000000)">
                        <g id="Group-4" transform="translate(14.750000, 13.250000) rotate(90.000000) translate(-14.750000, -13.250000) translate(1.500000, -1.500000)">
                            <polygon id="Triangle" fill="#523419" points="13.25 14.3318469 26.5 29.5 0 29.5"></polygon>
                            <polygon id="Triangle" fill="#794C24" transform="translate(13.250000, 7.581705) scale(1, -1) translate(-13.250000, -7.581705) " points="13.25 9.06422085e-14 26.5 15.1634091 0 15.1634091"></polygon>
                            <polygon id="Triangle" fill="#523319" transform="translate(20.075758, 14.750000) scale(-1, 1) rotate(90.000000) translate(-20.075758, -14.750000) " points="20.0757576 8.37162162 34.9318182 21.1283784 5.21969697 21.1283784"></polygon>
                            <polygon id="Triangle" fill="#A06632" transform="translate(6.424242, 14.750000) rotate(90.000000) translate(-6.424242, -14.750000) " points="6.42424242 8.37162162 21.280303 21.1283784 -8.43181818 21.1283784"></polygon>
                            <rect id="Rectangle-6" fill="#8B572A" x="2.71022727" y="3.08952703" width="21.0795455" height="23.3209459"></rect>
                        </g>
                    </g>
                    <g id="Group-9" transform="translate(0.000000, 79.500000)">
                        <g id="Group-4" transform="translate(14.750000, 13.250000) rotate(90.000000) translate(-14.750000, -13.250000) translate(1.500000, -1.500000)">
                            <polygon id="Triangle" fill="#523419" points="13.25 14.3318469 26.5 29.5 0 29.5"></polygon>
                            <polygon id="Triangle" fill="#794C24" transform="translate(13.250000, 7.581705) scale(1, -1) translate(-13.250000, -7.581705) " points="13.25 9.06422085e-14 26.5 15.1634091 0 15.1634091"></polygon>
                            <polygon id="Triangle" fill="#523319" transform="translate(20.075758, 14.750000) scale(-1, 1) rotate(90.000000) translate(-20.075758, -14.750000) " points="20.0757576 8.37162162 34.9318182 21.1283784 5.21969697 21.1283784"></polygon>
                            <polygon id="Triangle" fill="#A06632" transform="translate(6.424242, 14.750000) rotate(90.000000) translate(-6.424242, -14.750000) " points="6.42424242 8.37162162 21.280303 21.1283784 -8.43181818 21.1283784"></polygon>
                            <rect id="Rectangle-6" fill="#8B572A" x="2.71022727" y="3.08952703" width="21.0795455" height="23.3209459"></rect>
                        </g>
                    </g>
                    <g id="Group-9" transform="translate(29.500000, 79.500000)">
                        <g id="Group-4" transform="translate(14.750000, 13.250000) rotate(90.000000) translate(-14.750000, -13.250000) translate(1.500000, -1.500000)">
                            <polygon id="Triangle" fill="#523419" points="13.25 14.3318469 26.5 29.5 0 29.5"></polygon>
                            <polygon id="Triangle" fill="#794C24" transform="translate(13.250000, 7.581705) scale(1, -1) translate(-13.250000, -7.581705) " points="13.25 9.06422085e-14 26.5 15.1634091 0 15.1634091"></polygon>
                            <polygon id="Triangle" fill="#523319" transform="translate(20.075758, 14.750000) scale(-1, 1) rotate(90.000000) translate(-20.075758, -14.750000) " points="20.0757576 8.37162162 34.9318182 21.1283784 5.21969697 21.1283784"></polygon>
                            <polygon id="Triangle" fill="#A06632" transform="translate(6.424242, 14.750000) rotate(90.000000) translate(-6.424242, -14.750000) " points="6.42424242 8.37162162 21.280303 21.1283784 -8.43181818 21.1283784"></polygon>
                            <rect id="Rectangle-6" fill="#8B572A" x="2.71022727" y="3.08952703" width="21.0795455" height="23.3209459"></rect>
                        </g>
                    </g>
                </g>
            </g>
            <g id="Bitt" transform="translate(69.000000, 0.000000)" fill="#FFF8F2">
                <path d="M37.5289297,38.3529287 C41.9472077,38.3529287 44.2966628,35.1956213 44.2966628,30.501201 C44.2966628,25.8067806 41.895325,22 37.477047,22 C33.058769,22 30.6170612,25.482044 30.6170612,30.1764643 C30.6170612,34.8708847 33.1106517,38.3529287 37.5289297,38.3529287 Z" id="Oval-2"></path>
                <path d="M47.477047,38 C51.731382,38 56.9053587,34.2816782 56.9912057,29.8288286 C56.9945139,29.6572357 56.9912057,29.6741895 56.9912057,29.5 C56.9912057,24.8055796 51.895325,21 47.477047,21 C43.058769,21 42,25.1344082 42,29.8288286 C42,34.523249 43.058769,38 47.477047,38 Z" id="Oval-2"></path>
                <path d="M14.9796205,27.2586052 C19.3978985,27.2586052 22.4590187,23.950649 22.4590187,19.2562287 C22.4590187,14.5618083 19.3978985,10.2586052 14.9796205,10.2586052 C10.5613425,10.2586052 7.89375673,13.5903753 7.89375673,18.2847956 C7.89375673,22.979216 10.5613425,27.2586052 14.9796205,27.2586052 Z" id="Oval-2" transform="translate(15.176388, 18.758605) rotate(51.000000) translate(-15.176388, -18.758605) "></path>
                <path d="M11.4838371,17.8749479 C15.9021151,17.8749479 17.0646495,14.0693683 17.0646495,9.37494792 C17.0646495,4.68052755 15.9021151,0.874947921 11.4838371,0.874947921 C7.06555911,0.874947921 3.59345781,5.72739326 3.59345781,10.4218136 C3.59345781,15.116234 7.06555911,17.8749479 11.4838371,17.8749479 Z" id="Oval-2" transform="translate(10.329054, 9.374948) rotate(75.000000) translate(-10.329054, -9.374948) "></path>
                <path d="M28.1559455,36.4168248 C32.5742235,36.4168248 33.7367579,32.6112452 33.7367579,27.9168248 C33.7367579,23.2224045 32.5742235,19.4168248 28.1559455,19.4168248 C23.7376675,19.4168248 22.6788984,23.5512331 22.6788984,28.2456535 C22.6788984,32.9400738 23.7376675,36.4168248 28.1559455,36.4168248 Z" id="Oval-2" transform="translate(28.207828, 27.916825) rotate(21.000000) translate(-28.207828, -27.916825) "></path>
                <path d="M22.5941261,33.5852089 C27.0124041,33.5852089 28.1749385,29.7796293 28.1749385,25.0852089 C28.1749385,20.3907885 27.0124041,16.5852089 22.5941261,16.5852089 C18.1758481,16.5852089 17.117079,20.7196171 17.117079,25.4140375 C17.117079,30.1084579 18.1758481,33.5852089 22.5941261,33.5852089 Z" id="Oval-2" transform="translate(22.646009, 25.085209) rotate(39.000000) translate(-22.646009, -25.085209) "></path>
                <path d="M35.5,28.0852089 C49.0309764,28.0852089 51.9936309,19.6723995 51.9936309,10.8123137 C51.9936309,1.95222792 41.782412,4.70981385 28.2514357,4.70981385 C14.7204593,4.70981385 11,3.18251866 11,12.0426044 C11,14.2424819 11.6762217,16.3389402 12.8999806,18.2477167 C16.6049546,24.0266062 25.3286401,28.0852089 35.5,28.0852089 Z" id="Oval-2"></path>
            </g>
            <g id="Bitt" transform="translate(99.000000, 214.500000) scale(1, -1) translate(-99.000000, -214.500000) translate(76.000000, 195.000000)" fill="#FFF8F2">
                <path d="M37.5289297,38.3529287 C41.9472077,38.3529287 44.2966628,35.1956213 44.2966628,30.501201 C44.2966628,25.8067806 41.895325,22 37.477047,22 C33.058769,22 30.6170612,25.482044 30.6170612,30.1764643 C30.6170612,34.8708847 33.1106517,38.3529287 37.5289297,38.3529287 Z" id="Oval-2"></path>
                <path d="M14.9796205,27.2586052 C19.3978985,27.2586052 22.4590187,23.950649 22.4590187,19.2562287 C22.4590187,14.5618083 19.3978985,10.2586052 14.9796205,10.2586052 C10.5613425,10.2586052 7.89375673,13.5903753 7.89375673,18.2847956 C7.89375673,22.979216 10.5613425,27.2586052 14.9796205,27.2586052 Z" id="Oval-2" transform="translate(15.176388, 18.758605) rotate(51.000000) translate(-15.176388, -18.758605) "></path>
                <path d="M11.4838371,17.8749479 C15.9021151,17.8749479 17.0646495,14.0693683 17.0646495,9.37494792 C17.0646495,4.68052755 15.9021151,0.874947921 11.4838371,0.874947921 C7.06555911,0.874947921 3.59345781,5.72739326 3.59345781,10.4218136 C3.59345781,15.116234 7.06555911,17.8749479 11.4838371,17.8749479 Z" id="Oval-2" transform="translate(10.329054, 9.374948) rotate(75.000000) translate(-10.329054, -9.374948) "></path>
                <path d="M28.1559455,36.4168248 C32.5742235,36.4168248 33.7367579,32.6112452 33.7367579,27.9168248 C33.7367579,23.2224045 32.5742235,19.4168248 28.1559455,19.4168248 C23.7376675,19.4168248 22.6788984,23.5512331 22.6788984,28.2456535 C22.6788984,32.9400738 23.7376675,36.4168248 28.1559455,36.4168248 Z" id="Oval-2" transform="translate(28.207828, 27.916825) rotate(21.000000) translate(-28.207828, -27.916825) "></path>
                <path d="M22.5941261,33.5852089 C27.0124041,33.5852089 28.1749385,29.7796293 28.1749385,25.0852089 C28.1749385,20.3907885 27.0124041,16.5852089 22.5941261,16.5852089 C18.1758481,16.5852089 17.117079,20.7196171 17.117079,25.4140375 C17.117079,30.1084579 18.1758481,33.5852089 22.5941261,33.5852089 Z" id="Oval-2" transform="translate(22.646009, 25.085209) rotate(39.000000) translate(-22.646009, -25.085209) "></path>
                <path d="M35.5,28.0852089 C49.0309764,28.0852089 44.8237028,20.9026902 44.8237028,12.0426044 C44.8237028,3.18251866 45.0438585,5.26787755 31.5128821,5.26787755 C17.9819058,5.26787755 11,3.18251866 11,12.0426044 C11,14.2424819 11.6762217,16.3389402 12.8999806,18.2477167 C16.6049546,24.0266062 25.3286401,28.0852089 35.5,28.0852089 Z" id="Oval-2"></path>
            </g>
        </g>
    </g>
</svg>